<?xml version="1.0" encoding="utf-8"?>
<!-- Generator: Adobe Illustrator 19.1.0, SVG Export Plug-In . SVG Version: 6.00 Build 0)  -->
<svg version="1.1" id="Layer_1" xmlns="http://www.w3.org/2000/svg" xmlns:xlink="http://www.w3.org/1999/xlink" x="0px" y="0px"
	 viewBox="-859 2486 200 30" style="enable-background:new -859 2486 200 30;" xml:space="preserve">
<style type="text/css">
	.st0{fill:#683707;}
</style>
<g>
	<g>
		<path class="st0" d="M-820.1,2503.7l-1.5,3.5h-1.7l6.2-13.9h1.6l6.2,13.9h-1.7l-1.5-3.5H-820.1z M-816.3,2495.2l-3.1,7h6.2
			L-816.3,2495.2z"/>
		<path class="st0" d="M-794.5,2507.2v-11.5l-5.1,10h-1l-5-10v11.5h-1.5v-13.9h2l5.1,10l5.1-10h1.9v13.9
			C-793,2507.2-794.5,2507.2-794.5,2507.2z"/>
		<path class="st0" d="M-787.6,2503.7l-1.5,3.5h-1.7l6.2-13.9h1.6l6.2,13.9h-1.7l-1.5-3.5H-787.6z M-783.8,2495.2l-3.1,7h6.2
			L-783.8,2495.2z"/>
		<path class="st0" d="M-773.7,2505.7h9.3v1.5h-11.4v-1.2l9.2-11.1h-9v-1.6h11v1.3L-773.7,2505.7z"/>
		<path class="st0" d="M-748.2,2500.3c0,3.9-3.2,7-7.3,7s-7.3-3.1-7.3-7c0-3.9,3.2-7,7.3-7S-748.2,2496.4-748.2,2500.3z
			 M-761.1,2500.3c0,3.1,2.6,5.5,5.7,5.5c3.1,0,5.6-2.4,5.6-5.5c0-3.1-2.5-5.5-5.6-5.5C-758.5,2494.8-761.1,2497.2-761.1,2500.3z"/>
		<path class="st0" d="M-735.3,2507.2l-8.3-11.2v11.2h-1.6v-13.9h1.6l8.3,11.2v-11.2h1.6v13.9H-735.3z"/>
		<path class="st0" d="M-711.5,2507.2v-11.5l-5.1,10h-1l-5-10v11.5h-1.4v-13.9h2l5.1,10l5.1-10h1.9v13.9
			C-709.9,2507.2-711.5,2507.2-711.5,2507.2z"/>
		<path class="st0" d="M-694.4,2501.5c0,3.6-2.2,5.8-5.8,5.8c-3.7,0-5.9-2.2-5.9-5.8v-8.2h1.6v8.2c0,2.7,1.6,4.3,4.3,4.3
			c2.7,0,4.2-1.6,4.2-4.3v-8.2h1.6L-694.4,2501.5L-694.4,2501.5z"/>
		<path class="st0" d="M-682,2494.6l-0.7,1.5c-1.3-0.8-2.7-1.2-3.8-1.2c-1.8,0-3,0.7-3,1.8c0,3.6,7.8,1.7,7.8,6.7c0,2.3-2,3.8-5,3.8
			c-2,0-4-0.9-5.3-2.1l0.7-1.4c1.3,1.3,3.1,2,4.6,2c2,0,3.3-0.8,3.3-2.1c0-3.7-7.8-1.7-7.8-6.7c0-2.2,1.9-3.6,4.8-3.6
			C-684.8,2493.3-683.1,2493.8-682,2494.6z"/>
		<path class="st0" d="M-678.4,2507.2v-13.9h1.6v13.9H-678.4z"/>
		<path class="st0" d="M-661.6,2495.3l-1,1.2c-1.1-1.1-2.6-1.7-4.1-1.7c-3.1,0-5.7,2.4-5.7,5.5c0,3,2.5,5.5,5.7,5.5
			c1.5,0,3-0.6,4.1-1.7l1,1.1c-1.4,1.3-3.2,2.1-5.2,2.1c-4,0-7.2-3.1-7.2-7c0-3.9,3.2-7,7.2-7
			C-664.7,2493.3-662.9,2494.1-661.6,2495.3z"/>
	</g>
	<g>
		<g>
			<path class="st0" d="M-851.3,2499.4c0.6,0,1,0.3,1.3,0.9l0,0c0.4-0.6,0.8-0.9,1.3-0.9c0.9,0,1.5,0.8,1.5,2v3
				c0,0.1-0.1,0.2-0.2,0.2h-1c-0.1,0-0.2-0.1-0.2-0.2v-2.9c0-0.6-0.2-0.9-0.7-0.9s-0.7,0.4-0.7,1.1v2.7c0,0.1-0.1,0.2-0.2,0.2h-1
				c-0.1,0-0.2-0.1-0.2-0.2v-2.9c0-0.6-0.2-0.9-0.7-0.9s-0.7,0.4-0.7,1.1v2.7c0,0.1-0.1,0.2-0.2,0.2h-1c-0.1,0-0.2-0.1-0.2-0.2v-4.7
				c0-0.1,0.1-0.2,0.2-0.2h0.8c0.1,0,0.1,0.1,0.2,0.2l0.1,0.6l0,0C-852.2,2499.7-851.8,2499.4-851.3,2499.4z"/>
			<path class="st0" d="M-842.5,2499.6v4.7c0,0.1-0.1,0.2-0.2,0.2h-0.8c-0.1,0-0.1-0.1-0.2-0.2l-0.1-0.6l0,0
				c-0.2,0.6-0.6,0.9-1.2,0.9c-0.9,0-1.5-0.7-1.5-2v-3c0-0.1,0.1-0.2,0.2-0.2h1c0.1,0,0.2,0.1,0.2,0.2v2.9c0,0.6,0.2,0.9,0.7,0.9
				s0.7-0.4,0.7-1.1v-2.7c0-0.1,0.1-0.2,0.2-0.2h1C-842.6,2499.5-842.5,2499.5-842.5,2499.6z"/>
			<path class="st0" d="M-839.3,2500.9c-0.1-0.3-0.3-0.5-0.7-0.5c-0.3,0-0.6,0.2-0.6,0.4s0.2,0.4,0.6,0.5l0.7,0.2
				c0.9,0.2,1.2,0.7,1.2,1.5c0,0.9-0.8,1.6-1.9,1.6c-1,0-1.8-0.5-1.9-1.6c0-0.1,0-0.2,0.1-0.2l0.8-0.2c0.1,0,0.2,0,0.2,0.2
				c0.1,0.5,0.4,0.8,0.8,0.8s0.6-0.2,0.6-0.5c0-0.3-0.2-0.5-0.6-0.6l-0.5-0.1c-1.1-0.3-1.4-0.8-1.4-1.5c0-1,0.8-1.5,1.8-1.5
				s1.6,0.5,1.8,1.3c0,0.1,0,0.2-0.1,0.2l-0.8,0.1C-839.3,2501-839.3,2501-839.3,2500.9z"/>
			<path class="st0" d="M-836.8,2497.6c0.4,0,0.7,0.3,0.7,0.7c0,0.5-0.3,0.7-0.7,0.7c-0.4,0-0.7-0.3-0.7-0.7
				C-837.6,2497.9-837.2,2497.6-836.8,2497.6z M-837.5,2504.3v-4.7c0-0.1,0.1-0.2,0.2-0.2h1c0.1,0,0.2,0.1,0.2,0.2v4.7
				c0,0.1-0.1,0.2-0.2,0.2h-1C-837.4,2504.5-837.5,2504.4-837.5,2504.3z"/>
			<path class="st0" d="M-831.5,2502.9c-0.2,1.1-1,1.7-1.9,1.7c-1.2,0-2.2-1.1-2.2-2.6s0.9-2.6,2.2-2.6c0.9,0,1.7,0.6,1.9,1.7
				c0,0.1,0,0.2-0.1,0.2l-0.9,0.2c-0.1,0-0.2,0-0.2-0.1c-0.1-0.6-0.4-0.9-0.8-0.9c-0.6,0-0.8,0.6-0.8,1.6s0.3,1.6,0.8,1.6
				c0.4,0,0.6-0.3,0.8-0.9c0-0.1,0.1-0.1,0.2-0.1L-831.5,2502.9C-831.5,2502.7-831.5,2502.8-831.5,2502.9z"/>
			<path class="st0" d="M-837.5,2507c0.1,0.1,0.2,0.1,0.5,0.1c0.7-0.2,1.6-0.2,1.8,0c0.2,0.2-0.2,1.1-0.6,1.7
				c-0.1,0.2-0.2,0.4-0.1,0.5c0,0,0.1,0,0.1,0.1c0.1,0,0.3-0.1,0.5-0.3c0.4-0.3,0.7-0.8,0.8-1.2c0.2-0.5,0.2-1.1,0.1-1.3
				c-0.2-0.2-0.8-0.4-1.3-0.4s-1,0.1-1.5,0.4C-837.3,2506.6-837.5,2506.8-837.5,2507L-837.5,2507z"/>
			<path class="st0" d="M-850.8,2506.7c0,0.1,0.1,0.3,0.3,0.5c1.8,2.3,4.8,3.3,7.7,3.3c2.5,0,4.9-0.8,6.5-2.1
				c0.3-0.2,0.4-0.4,0.4-0.6c0-0.1,0-0.1-0.1-0.2c-0.1-0.1-0.3,0-0.6,0.1c-1.4,0.8-3.6,1.3-6,1.3c-2.6,0-5.5-0.7-7.6-2.4
				c-0.2-0.2-0.4-0.3-0.6-0.2C-850.8,2506.5-850.9,2506.6-850.8,2506.7L-850.8,2506.7z"/>
			<path class="st0" d="M-855.8,2496.7c-0.9,0-1.4-0.6-1.4-1.5c0-1.1,0.8-1.8,2.2-1.8c0.2,0,0.4,0,0.5,0l0,0c0-0.6-0.2-0.9-0.7-0.9
				c-0.4,0-0.6,0.2-0.7,0.5c0,0.1-0.1,0.2-0.2,0.1l-0.8-0.1c-0.1,0-0.2-0.1-0.2-0.2c0.2-0.8,0.9-1.3,2-1.3c1.2,0,1.9,0.7,1.9,1.9v3
				c0,0.1-0.1,0.2-0.2,0.2h-0.8c-0.1,0-0.1-0.1-0.2-0.2l-0.1-0.5l0,0C-854.7,2496.4-855.2,2496.7-855.8,2496.7z M-855.3,2495.8
				c0.5,0,0.8-0.5,0.8-1.3v-0.3c-0.1,0-0.2,0-0.3,0c-0.7,0-1.1,0.4-1.1,0.9C-855.9,2495.5-855.7,2495.8-855.3,2495.8z"/>
			<path class="st0" d="M-850,2491.5c0.6,0,1,0.3,1.3,0.9l0,0c0.4-0.6,0.8-0.9,1.3-0.9c0.9,0,1.5,0.8,1.5,2v3c0,0.1-0.1,0.2-0.2,0.2
				h-1c-0.1,0-0.2-0.1-0.2-0.2v-2.9c0-0.6-0.2-0.9-0.7-0.9s-0.7,0.4-0.7,1.1v2.7c0,0.1-0.1,0.2-0.2,0.2h-1c-0.1,0-0.2-0.1-0.2-0.2
				v-2.9c0.3-0.6,0.1-0.9-0.4-0.9s-0.7,0.4-0.7,1.1v2.7c0,0.1-0.1,0.2-0.2,0.2h-1c-0.1,0-0.2-0.1-0.2-0.2v-4.7
				c0-0.1,0.1-0.2,0.2-0.2h0.8c0.1,0,0.1,0.1,0.2,0.2l0.1,0.6l0,0C-851,2491.8-850.5,2491.5-850,2491.5z"/>
			<path class="st0" d="M-843.9,2496.7c-0.9,0-1.4-0.6-1.4-1.5c0-1.1,0.8-1.8,2.2-1.8c0.2,0,0.4,0,0.5,0l0,0c0-0.6-0.2-0.9-0.7-0.9
				c-0.4,0-0.6,0.2-0.7,0.6c0,0.1-0.1,0.2-0.2,0.1l-0.9-0.2c-0.1,0-0.2-0.1-0.1-0.2c0.2-0.8,0.9-1.3,2-1.3c1.2,0,1.9,0.7,1.9,1.9v3
				c0,0.1-0.1,0.2-0.2,0.2h-0.8c-0.1,0-0.1-0.1-0.2-0.2l-0.1-0.6l0,0C-842.9,2496.4-843.3,2496.7-843.9,2496.7z M-843.4,2495.8
				c0.5,0,0.8-0.5,0.8-1.3v-0.3c-0.1,0-0.2,0-0.3,0c-0.7,0-1.1,0.4-1.1,0.9C-844,2495.5-843.8,2495.8-843.4,2495.8z"/>
			<path class="st0" d="M-840.8,2495.7c0-0.1,0-0.2,0.1-0.2l2-2.9h-1.8c-0.1,0-0.2-0.1-0.2-0.2v-0.6c0-0.1,0.1-0.2,0.2-0.2h3.2
				c0.1,0,0.2,0.1,0.2,0.2v0.7c0,0.1,0,0.2-0.1,0.2l-2,2.9h2c0.1,0,0.2,0.1,0.2,0.2v0.7c0,0.1-0.1,0.2-0.2,0.2h-3.3
				c-0.1,0-0.2-0.1-0.2-0.2L-840.8,2495.7L-840.8,2495.7z"/>
			<path class="st0" d="M-837,2494.1c0-1.5,0.9-2.6,2.2-2.6c1.2,0,2.2,1.1,2.2,2.6s-0.9,2.6-2.2,2.6
				C-836,2496.7-837,2495.6-837,2494.1z M-834.8,2495.7c0.5,0,0.9-0.6,0.9-1.6s-0.3-1.6-0.9-1.6c-0.5,0-0.8,0.6-0.8,1.6
				S-835.3,2495.7-834.8,2495.7z"/>
			<path class="st0" d="M-829.5,2491.5c0.9,0,1.5,0.8,1.5,2v3c0,0.1-0.1,0.2-0.2,0.2h-1c-0.1,0-0.2-0.1-0.2-0.2v-2.9
				c0-0.6-0.2-0.9-0.7-0.9s-0.8,0.4-0.8,1.1v2.7c0,0.1-0.1,0.2-0.2,0.2h-1c-0.1,0-0.2-0.1-0.2-0.2v-4.7c0-0.1,0.1-0.2,0.2-0.2h0.8
				c0.1,0,0.1,0.1,0.2,0.2l0.1,0.6l0,0C-830.5,2491.8-830.1,2491.5-829.5,2491.5z"/>
		</g>
	</g>
</g>
</svg>
