<?xml version="1.0" encoding="utf-8"?>
<!-- Generator: Adobe Illustrator 19.1.0, SVG Export Plug-In . SVG Version: 6.00 Build 0)  -->
<svg version="1.1" id="Layer_1" xmlns="http://www.w3.org/2000/svg" xmlns:xlink="http://www.w3.org/1999/xlink" x="0px" y="0px"
	 viewBox="-874 2486 170 30" style="enable-background:new -874 2486 170 30;" xml:space="preserve">
<style type="text/css">
	.st0{fill:#683707;}
</style>
<g>
	<g>
		<path class="st0" d="M-837.2,2503.7l-1.5,3.5h-1.7l6.2-13.9h1.6l6.2,13.9h-1.6l-1.5-3.5H-837.2z M-833.4,2495.2l-3.1,7h6.2
			L-833.4,2495.2z"/>
		<path class="st0" d="M-818.9,2493.3c3.4,0,5.4,1.7,5.4,4.7c0,3.1-2,4.8-5.4,4.8h-3.6v4.4h-1.6v-13.9H-818.9z M-822.5,2501.3h3.5
			c2.5,0,4-1.1,4-3.3c0-2.1-1.4-3.2-4-3.2h-3.6L-822.5,2501.3L-822.5,2501.3z"/>
		<path class="st0" d="M-805.6,2493.3c3.4,0,5.4,1.7,5.4,4.7c0,3.1-2,4.8-5.4,4.8h-3.6v4.4h-1.6v-13.9H-805.6z M-809.2,2501.3h3.6
			c2.5,0,4-1.1,4-3.3c0-2.1-1.4-3.2-4-3.2h-3.6V2501.3z"/>
		<path class="st0" d="M-789.9,2505.7v1.5h-7.7v-13.9h1.6v12.4H-789.9z"/>
		<path class="st0" d="M-785.7,2494.9v4.6h7v1.5h-7v4.8h8.1v1.5h-9.7v-14h9.4v1.5L-785.7,2494.9L-785.7,2494.9z"/>
		<path class="st0" d="M-756.3,2507.2v-11.5l-5.1,10h-1l-5-10v11.5h-1.5v-13.9h2l5.1,10l5.1-10h1.9v13.9
			C-754.8,2507.2-756.3,2507.2-756.3,2507.2z"/>
		<path class="st0" d="M-739.3,2501.5c0,3.6-2.2,5.8-5.8,5.8c-3.7,0-5.9-2.2-5.9-5.8v-8.2h1.6v8.2c0,2.7,1.6,4.3,4.3,4.3
			c2.6,0,4.2-1.6,4.2-4.3v-8.2h1.6V2501.5z"/>
		<path class="st0" d="M-726.9,2494.6l-0.7,1.5c-1.3-0.8-2.7-1.2-3.8-1.2c-1.8,0-3,0.7-3,1.8c0,3.6,7.8,1.7,7.8,6.7
			c0,2.3-2,3.8-5,3.8c-2,0-4-0.9-5.3-2.1l0.7-1.4c1.3,1.3,3.1,2,4.6,2c2,0,3.3-0.8,3.3-2.1c0-3.7-7.8-1.7-7.8-6.7
			c0-2.2,1.9-3.6,4.8-3.6C-729.7,2493.3-728,2493.8-726.9,2494.6z"/>
		<path class="st0" d="M-723.3,2507.2v-13.9h1.6v13.9H-723.3z"/>
		<path class="st0" d="M-706.4,2495.3l-1,1.2c-1.1-1.1-2.6-1.7-4.1-1.7c-3.1,0-5.7,2.4-5.7,5.5c0,3,2.5,5.5,5.7,5.5
			c1.5,0,3-0.6,4.1-1.7l1,1.1c-1.4,1.3-3.2,2.1-5.2,2.1c-4,0-7.2-3.1-7.2-7c0-3.9,3.2-7,7.2-7
			C-709.6,2493.3-707.8,2494.1-706.4,2495.3z"/>
	</g>
	<path id="_Compound_Path_11_2_" class="st0" d="M-848.3,2492.3c-0.6-1.4-1.8-2.4-3.2-2.9c-0.9-0.2-1.9-0.3-2.9-0.3H-865
		c-1,0-2,0.1-2.9,0.3c-1.4,0.4-2.6,1.5-3.2,2.9c-0.4,1.1-0.5,2.2-0.5,3.3v10.7c-0.1,1.1,0.1,2.3,0.5,3.4c0.6,1.4,1.8,2.4,3.2,2.9
		c0.9,0.2,1.9,0.3,2.9,0.3h10.7c1,0,1.9-0.1,2.9-0.3c1.4-0.4,2.6-1.5,3.2-2.9c0.4-1.1,0.5-2.2,0.5-3.4v-10.7
		C-847.7,2494.5-847.9,2493.4-848.3,2492.3z M-854.2,2505.5c-0.1,0.3-0.2,0.6-0.3,0.8c-0.2,0.2-0.4,0.5-0.7,0.6
		c-0.3,0.1-0.5,0.2-0.8,0.3c-0.4,0.1-0.9,0.1-1.3,0.1c-0.3-0.1-0.6-0.2-0.9-0.4c-0.8-0.7-0.8-1.9-0.1-2.6l0,0
		c0.2-0.2,0.5-0.4,0.8-0.5c0.4-0.1,0.9-0.3,1.3-0.3c0.2,0,0.3-0.1,0.5-0.1s0.4-0.1,0.5-0.3c0.1-0.2,0.2-0.4,0.1-0.6v-5.2
		c0-0.4-0.2-0.5-0.6-0.4c-0.3,0.1-6.1,1.2-6.1,1.2c-0.3,0-0.5,0.2-0.5,0.5v0.1v7.7c0,0.3,0,0.6-0.1,0.9c-0.1,0.3-0.2,0.6-0.3,0.8
		c-0.2,0.2-0.4,0.5-0.7,0.6c-0.3,0.1-0.5,0.3-0.8,0.3c-0.4,0.1-0.9,0.1-1.3,0.1c-0.3-0.1-0.6-0.2-0.9-0.4c-0.8-0.7-0.8-1.9-0.1-2.7
		c0.2-0.2,0.5-0.4,0.8-0.5c0.5-0.4,1-0.5,1.4-0.5c0.2,0,0.3-0.1,0.5-0.1s0.4-0.1,0.5-0.3c0.1-0.2,0.2-0.4,0.2-0.6v-8.8
		c0-0.1,0-0.2,0-0.2c0-0.2,0.1-0.3,0.2-0.5c0.1-0.1,0.3-0.2,0.4-0.2l0,0l7.1-1.4c0.1,0,0.6-0.1,0.6-0.1c0.3,0,0.6,0.2,0.6,0.5
		c0,0.1,0,0.1,0,0.2v11.2C-854.1,2504.9-854.2,2505.2-854.2,2505.5L-854.2,2505.5z"/>
</g>
</svg>
