<?xml version="1.0" encoding="utf-8"?>
<!-- Generator: Adobe Illustrator 19.1.0, SVG Export Plug-In . SVG Version: 6.00 Build 0)  -->
<svg version="1.1" id="Layer_1" xmlns="http://www.w3.org/2000/svg" xmlns:xlink="http://www.w3.org/1999/xlink" x="0px" y="0px"
	 viewBox="0 0 1826.6 216.5" style="enable-background:new 0 0 1826.6 216.5;" xml:space="preserve">
<style type="text/css">
	.st0{opacity:0.6;}
	.st1{fill:#F6F8F5;}
</style>
<g class="st0">
	<path class="st1" d="M127.8,205.3c-10.7,5.5-25.2,8.3-40.9,8.3c-49.2,0-83.5-36.3-83.5-84.2c0-49.2,37.2-83.5,83.8-83.5
		c13.3,0,34.1,4.2,40.7,9v17.5c-6.8-5.2-27.1-11.6-40.7-11.6c-38.1,0-67.6,29.7-67.6,68.9c0,38.7,29.1,69.3,67.6,69.3
		c14.2,0,29.1-4.2,40.7-10.9V205.3z"/>
	<path class="st1" d="M227.9,48.9h16.2v102.6c0,40.9-23.8,62.1-55.1,62.1c-30.8,0-55.1-20.6-55.1-62.5V48.9h16.2v103
		c0,32.6,17.5,47,38.9,47c18.6,0,38.9-11.6,38.9-46.8V48.9z"/>
	<polygon class="st1" points="250.3,210.7 250.3,48.9 266.4,48.9 266.4,196.1 333.4,196.1 333.4,210.7 	"/>
	<polygon class="st1" points="346.5,210.7 346.5,63.6 309.3,63.6 309.3,48.9 399.6,48.9 399.6,63.6 362.7,63.6 362.7,210.7 	"/>
	<path class="st1" d="M498.5,48.9h16.2v102.6c0,40.9-23.8,62.1-55.1,62.1c-30.8,0-55.1-20.6-55.1-62.5V48.9h16.2v103
		c0,32.6,17.5,47,38.9,47c18.6,0,38.9-11.6,38.9-46.8V48.9z"/>
	<path class="st1" d="M585.5,210.7l-54.9-73.3h15.7c28.6,0,45.7-14.7,45.7-36.7c0-15.3-9.4-37.2-46.6-37.2h-30.8v147.2h-16.2V48.9
		h48.8c42.2,0,61,24.9,61,52.3c0,26.2-19.7,47-48.1,49.2l45.7,60.4H585.5z"/>
	<path class="st1" d="M740.1,210.7l-23.4-54.5h-75.2l-23.6,54.5H601l69.1-161.8h18.1l69.5,161.8H740.1z M679.3,67.3l-31.7,74.4h62.8
		L679.3,67.3z"/>
	<path class="st1" d="M837.2,210.7V48.9h49c44.6,0,58,26.5,58,48.8c0,21.6-14,47.9-58.2,47.9h-32.6v65.2H837.2z M889.5,130.9
		c22.5,0,38.5-13.6,38.5-33.7c0-16.2-10.3-33.7-42-33.7h-32.6v67.4H889.5z"/>
	<path class="st1" d="M1035.1,210.7l-54.9-73.3h15.7c28.6,0,45.7-14.7,45.7-36.7c0-15.3-9.4-37.2-46.6-37.2h-30.8v147.2h-16.2V48.9
		h48.8c42.2,0,61,24.9,61,52.3c0,26.2-19.7,47-48.1,49.2l45.7,60.4H1035.1z"/>
	<path class="st1" d="M1142.9,213.6c-44.2,0-85.5-35.9-85.5-82.9c0-46.6,38-84.6,85.5-84.6c47,0,85.7,37.6,85.7,83.8
		C1228.6,175.5,1189.9,213.6,1142.9,213.6 M1142.7,60.7c-38.3,0-69.1,32.4-69.1,70c0,36.5,31.7,68.2,69.3,68.2
		c38.7,0,69.5-31.7,69.5-68.9C1212.4,92.6,1181.6,60.7,1142.7,60.7"/>
	<polygon class="st1" points="1235.8,210.7 1235.8,48.9 1317.6,48.9 1317.6,63.6 1252,63.6 1252,122.2 1315.2,122.2 1315.2,136.8 
		1252,136.8 1252,210.7 	"/>
	<path class="st1" d="M1416.7,205.3c-10.7,5.5-25.1,8.3-40.9,8.3c-50.3,0-83.5-35.6-83.5-84.2c0-46.4,34.8-83.5,83.1-83.5
		c15.3,0,34.8,4.4,41.3,9v17.5c-9.6-7.2-24.5-11.6-40.5-11.6c-35.9,0-63.4,24.1-67.4,61h105.4v14.9h-105.6
		c3.9,37.6,31.1,62.3,67.4,62.3c15.1,0,28.4-3.7,40.7-10.9V205.3z M1355,39.9l-7.2-12.7l43.5-23.8l7,13.1L1355,39.9z"/>
	<polygon class="st1" points="1462.4,210.7 1462.4,63.6 1425.2,63.6 1425.2,48.9 1515.5,48.9 1515.5,63.6 1478.6,63.6 1478.6,210.7 
			"/>
	<rect x="1520.6" y="48.9" class="st1" width="16.2" height="161.8"/>
	<path class="st1" d="M1665.3,205.3c-10.7,5.5-25.1,8.3-40.9,8.3c-49.2,0-83.5-36.3-83.5-84.2c0-49.2,37.2-83.5,83.8-83.5
		c13.3,0,34.1,4.2,40.7,9v17.5c-6.8-5.2-27.1-11.6-40.7-11.6c-38,0-67.6,29.7-67.6,68.9c0,38.7,29.1,69.3,67.6,69.3
		c14.2,0,29.1-4.2,40.7-10.9V205.3z"/>
	<path class="st1" d="M1805.5,210.7l-23.4-54.5h-75.2l-23.6,54.5h-16.8l69.1-161.8h18.1l69.5,161.8H1805.5z M1744.7,67.3l-31.7,74.4
		h62.8L1744.7,67.3z"/>
</g>
</svg>
