<?xml version="1.0" encoding="utf-8"?>
<!-- Generator: Adobe Illustrator 19.1.0, SVG Export Plug-In . SVG Version: 6.00 Build 0)  -->
<svg version="1.1" id="Layer_1" xmlns="http://www.w3.org/2000/svg" xmlns:xlink="http://www.w3.org/1999/xlink" x="0px" y="0px"
	 viewBox="-902 2486 115 30" style="enable-background:new -902 2486 115 30;" xml:space="preserve">
<style type="text/css">
	.st0{fill:#683707;}
</style>
<g>
	<g>
		<path class="st0" d="M-859.4,2494.6l-0.6,1.5c-1.3-0.8-2.7-1.2-3.8-1.2c-1.8,0-3,0.7-3,1.8c0,3.6,7.8,1.7,7.8,6.7
			c0,2.3-2,3.8-5,3.8c-2,0-4-0.9-5.3-2.1l0.7-1.4c1.3,1.3,3.1,2,4.6,2c2,0,3.3-0.8,3.3-2.1c0-3.7-7.8-1.7-7.8-6.7
			c0-2.2,1.9-3.6,4.8-3.6C-862.2,2493.3-860.5,2493.8-859.4,2494.6z"/>
		<path class="st0" d="M-850.5,2493.3c3.4,0,5.4,1.7,5.4,4.7c0,3.1-2,4.8-5.4,4.8h-3.6v4.4h-1.6v-13.9H-850.5z M-854.2,2501.3h3.6
			c2.5,0,4-1.1,4-3.3c0-2.1-1.4-3.2-4-3.2h-3.6V2501.3z"/>
		<path class="st0" d="M-829.2,2500.3c0,3.9-3.2,7-7.3,7s-7.3-3.1-7.3-7c0-3.9,3.2-7,7.3-7C-832.5,2493.3-829.2,2496.4-829.2,2500.3
			z M-842.2,2500.3c0,3.1,2.6,5.5,5.7,5.5s5.6-2.4,5.6-5.5c0-3.1-2.5-5.5-5.6-5.5S-842.2,2497.2-842.2,2500.3z"/>
		<path class="st0" d="M-822.3,2494.9v12.4h-1.6v-12.4h-4.5v-1.6h10.7v1.5L-822.3,2494.9L-822.3,2494.9z"/>
		<path class="st0" d="M-815.4,2507.2v-13.9h1.6v13.9H-815.4z"/>
		<path class="st0" d="M-808.1,2494.9v4.9h6.5v1.5h-6.5v6h-1.6v-14h8.8v1.5L-808.1,2494.9L-808.1,2494.9z"/>
		<path class="st0" d="M-793.5,2507.2h-1.6v-4.7l-5.4-9.2h1.6l4.5,7.2l4.4-7.2h1.6l-5.3,9.1v4.8H-793.5z"/>
	</g>
	<path class="st0" d="M-877.7,2501c0,6.4-5.2,11.7-11.9,11.5c-6.1-0.1-11.3-5.2-11.1-11.8c0.1-6.2,5.2-11.4,11.9-11.2
		C-882.7,2489.6-877.7,2494.7-877.7,2501z M-892.4,2495.9c-0.3,0-0.5,0-0.8,0c-0.9,0.1-1.8,0.2-2.8,0.4c-0.2,0-0.4,0.1-0.5,0.1
		c-0.5,0.3-0.7,0.8-0.5,1.4c0.2,0.5,0.7,0.8,1.2,0.7c1.3-0.3,2.6-0.4,3.9-0.4c0.7,0,1.4,0,2.1,0.1c1.6,0.1,3.1,0.5,4.6,0.9
		c1.1,0.3,2.1,0.8,3.1,1.3c0.5,0.3,1.2,0.1,1.4-0.5c0.3-0.5,0.1-1.2-0.4-1.5c-0.3-0.2-0.7-0.3-1-0.5c-1.7-0.8-3.5-1.4-5.4-1.7
		c-1.3-0.2-2.7-0.4-4-0.4C-891.8,2495.9-892.1,2495.9-892.4,2495.9z M-891.7,2499.9c-0.5,0-0.9,0-1.4,0.1c-0.9,0-1.8,0.1-2.6,0.3
		c-0.5,0.1-0.8,0.5-0.7,1c0.1,0.4,0.5,0.8,0.9,0.8c0.2,0,0.4-0.1,0.6-0.1c1-0.2,2-0.3,3-0.3c0.6,0,1.3,0,1.9,0.1
		c1.2,0.1,2.4,0.4,3.6,0.7c1,0.3,1.9,0.7,2.9,1.2c0.4,0.2,1,0.1,1.2-0.4c0.2-0.4,0.1-1-0.4-1.2c-1.1-0.6-2.2-1.1-3.4-1.4
		C-887.9,2500.2-889.8,2499.9-891.7,2499.9z M-891.6,2503.4c-0.6,0-1.1,0-1.6,0.1c-0.7,0.1-1.4,0.2-2.1,0.3
		c-0.4,0.1-0.6,0.5-0.6,0.8c0.1,0.4,0.5,0.6,0.8,0.5c1-0.2,2.1-0.4,3.1-0.4c0.5,0,1,0,1.4,0.1c1.2,0.1,2.3,0.4,3.4,0.8
		c0.8,0.3,1.5,0.6,2.2,1c0.1,0.1,0.2,0.1,0.3,0.1c0.3,0,0.6-0.2,0.7-0.5s-0.1-0.6-0.4-0.8c-0.9-0.5-1.9-0.9-2.9-1.3
		C-888.5,2503.7-890.1,2503.4-891.6,2503.4z"/>
</g>
</svg>
