<?xml version="1.0" encoding="utf-8"?>
<!-- Generator: Adobe Illustrator 19.1.0, SVG Export Plug-In . SVG Version: 6.00 Build 0)  -->
<svg version="1.1" id="Layer_1" xmlns="http://www.w3.org/2000/svg" xmlns:xlink="http://www.w3.org/1999/xlink" x="0px" y="0px"
	 viewBox="0 0 880.4 113.8" style="enable-background:new 0 0 880.4 113.8;" xml:space="preserve">
<style type="text/css">
	.st0{opacity:0.8;}
	.st1{fill:#B5DCC6;}
</style>
<g class="st0">
	<path class="st1" d="M4.6,110.9V4.8h27.3C54.1,4.8,66,17,66,33c0,8.7-3.2,14.6-11.6,21.4C65.7,59.1,72,69.2,72,80.5
		c0,14.5-8.2,30.4-35.9,30.4H4.6z M32,50.5c20.4,0,23.4-11.8,23.4-17.9c0-7.9-4.6-18.2-24.2-18.2H15.2v36.1H32z M35.3,101.3
		c13.6,0,26.1-5.5,26.1-20.8c0-12-10.5-20.4-26.1-20.4H15.2v41.2H35.3z"/>
	<polygon class="st1" points="74.9,110.9 74.9,4.8 133,4.8 133,14.4 85.5,14.4 85.5,52.5 131.4,52.5 131.4,62.1 85.5,62.1 
		85.5,101.3 133,101.3 133,110.9 	"/>
	<polygon class="st1" points="212,110.9 149,17.5 148.8,17.5 148.8,110.9 138.1,110.9 138.1,4.8 152.5,4.8 211.7,92.8 212,92.8 
		212,4.8 222.6,4.8 222.6,110.9 	"/>
	<path class="st1" d="M226.9,110.9V4.8h31.4c12.8,0,25.7,3.2,35.1,9.3c14.3,9.5,23.1,26.4,23.1,44.3c0,13.2-5,26-15.3,36.6
		c-10.3,10.8-25.4,15.9-43.3,15.9H226.9z M257,101.3c17.6,0,29.4-4.6,37.1-12.8c8-8.6,11.8-19.6,11.8-30.7
		c0-13.8-5.7-25.8-16.9-34.4c-7.5-5.7-18.8-9-32.4-9h-19.1v86.9H257z"/>
	<rect x="319.6" y="4.8" class="st1" width="10.6" height="106.1"/>
	<polygon class="st1" points="357.7,110.9 357.7,14.4 333.3,14.4 333.3,4.8 392.6,4.8 392.6,14.4 368.3,14.4 368.3,110.9 	"/>
	<path class="st1" d="M439.3,112.8c-29,0-56.1-23.5-56.1-54.4c0-30.5,25-55.5,56.1-55.5c30.8,0,56.2,24.7,56.2,54.9
		C495.5,87.8,470.2,112.8,439.3,112.8 M439.2,12.5c-25.1,0-45.3,21.2-45.3,45.9c0,24,20.8,44.7,45.5,44.7
		c25.4,0,45.6-20.8,45.6-45.2C484.9,33.5,464.7,12.5,439.2,12.5"/>
	<polygon class="st1" points="586.3,110.9 542.6,4.8 554.3,4.8 591.8,97.7 629.4,4.8 640.8,4.8 596.8,110.9 	"/>
	<rect x="644.4" y="4.8" class="st1" width="10.6" height="106.1"/>
	<path class="st1" d="M742.2,107.3c-7,3.6-16.5,5.5-26.8,5.5c-32.3,0-54.8-23.8-54.8-55.2c0-32.3,24.4-54.8,54.9-54.8
		c8.7,0,22.4,2.7,26.7,5.9v11.5c-4.4-3.4-17.8-7.6-26.7-7.6c-25,0-44.3,19.5-44.3,45.2c0,25.4,19.1,45.5,44.3,45.5
		c9.3,0,19.1-2.7,26.7-7.2V107.3z"/>
	<rect x="749.2" y="4.8" class="st1" width="10.6" height="106.1"/>
	<path class="st1" d="M821.5,112.8c-29,0-56.1-23.5-56.1-54.4c0-30.5,25-55.5,56.1-55.5c30.8,0,56.2,24.7,56.2,54.9
		C877.8,87.8,852.4,112.8,821.5,112.8 M821.4,12.5c-25.1,0-45.3,21.2-45.3,45.9c0,24,20.8,44.7,45.5,44.7
		c25.4,0,45.6-20.8,45.6-45.2C867.1,33.5,846.9,12.5,821.4,12.5"/>
</g>
</svg>
