<?xml version="1.0" encoding="utf-8"?>
<!-- Generator: Adobe Illustrator 19.1.0, SVG Export Plug-In . SVG Version: 6.00 Build 0)  -->
<svg version="1.1" id="Layer_1" xmlns="http://www.w3.org/2000/svg" xmlns:xlink="http://www.w3.org/1999/xlink" x="0px" y="0px"
	 viewBox="-894 2486 130 30" style="enable-background:new -894 2486 130 30;" xml:space="preserve">
<style type="text/css">
	.st0{fill:#683707;}
</style>
<g>
	<g>
		<path class="st0" d="M-853.9,2507.3h-1.6v-4.7l-5.4-9.2h1.6l4.5,7.2l4.4-7.2h1.6l-5.3,9.1v4.8H-853.9z"/>
		<path class="st0" d="M-833.9,2500.3c0,3.9-3.2,7-7.3,7c-4.1,0-7.3-3.1-7.3-7c0-3.9,3.2-7,7.3-7
			C-837.1,2493.3-833.9,2496.4-833.9,2500.3z M-846.9,2500.3c0,3.1,2.6,5.5,5.7,5.5c3.1,0,5.6-2.4,5.6-5.5c0-3.1-2.5-5.5-5.6-5.5
			C-844.3,2494.8-846.9,2497.2-846.9,2500.3z"/>
		<path class="st0" d="M-819.7,2501.5c0,3.6-2.2,5.8-5.8,5.8c-3.7,0-5.9-2.2-5.9-5.8v-8.1h1.6v8.2c0,2.7,1.6,4.3,4.3,4.3
			s4.2-1.6,4.2-4.3v-8.2h1.6C-819.7,2493.4-819.7,2501.5-819.7,2501.5z"/>
		<path class="st0" d="M-811.5,2494.9v12.4h-1.6v-12.4h-4.5v-1.5h10.6v1.5H-811.5z"/>
		<path class="st0" d="M-793.3,2501.5c0,3.6-2.2,5.8-5.8,5.8c-3.7,0-5.9-2.2-5.9-5.8v-8.1h1.6v8.2c0,2.7,1.6,4.3,4.3,4.3
			c2.6,0,4.2-1.6,4.2-4.3v-8.2h1.6C-793.3,2493.4-793.3,2501.5-793.3,2501.5z"/>
		<path class="st0" d="M-783.6,2493.4c2.8,0,4.5,1.3,4.5,3.5c0,1.6-0.9,2.8-2.6,3.1c2,0.3,3.2,1.6,3.2,3.5c0,2.4-1.9,3.8-5,3.8h-6
			v-13.9H-783.6z M-787.9,2499.4h4.2c1.9,0,3-0.8,3-2.3c0-1.4-1.1-2.2-3-2.2h-4.2V2499.4z M-787.9,2505.7h4.2c2.3,0,3.6-0.9,3.6-2.5
			c0-1.5-1.3-2.4-3.6-2.4h-4.2V2505.7z"/>
		<path class="st0" d="M-773.6,2494.9v4.6h7v1.5h-7v4.8h8.1v1.5h-9.7v-13.9h9.4v1.5H-773.6z"/>
	</g>
	<path class="st0" d="M-868.2,2494.8c-0.3-1.1-1.1-1.9-2.2-2.2c-1.9-0.5-9.7-0.5-9.7-0.5s-7.7,0-9.7,0.5c-1,0.3-1.9,1.1-2.1,2.2
		c-0.5,1.9-0.5,6-0.5,6s0,4,0.5,6c0.3,1.1,1.1,1.9,2.2,2.2c1.9,0.5,9.7,0.5,9.7,0.5s7.7,0,9.7-0.5c1.1-0.3,1.9-1.1,2.2-2.2
		c0.5-1.9,0.5-6,0.5-6S-867.7,2496.7-868.2,2494.8z M-882.6,2504.4v-7.4l6.4,3.7L-882.6,2504.4z"/>
</g>
</svg>
