<?xml version="1.0" encoding="utf-8"?>
<!-- Generator: Adobe Illustrator 19.1.0, SVG Export Plug-In . SVG Version: 6.00 Build 0)  -->
<svg version="1.1" id="Layer_1" xmlns="http://www.w3.org/2000/svg" xmlns:xlink="http://www.w3.org/1999/xlink" x="0px" y="0px"
	 viewBox="-932 2473 55 55" style="enable-background:new -932 2473 55 55;" xml:space="preserve">
<style type="text/css">
	.st0{opacity:0.2;fill:#F6F8F5;enable-background:new    ;}
	.st1{fill:#F6F8F5;}
	.st2{fill:#683707;}
</style>
<g>
	<circle class="st0" cx="-904.5" cy="2500.5" r="26.7"/>
	<g>
		<path class="st1" d="M-877.8,2500.5c0,0,0,0.7-0.1,1.9c0,0.6-0.1,1.4-0.2,2.2c-0.1,0.4-0.1,0.9-0.2,1.4c-0.1,0.5-0.3,1-0.4,1.6
			c-0.6,2.2-1.6,4.9-3.4,7.5c-1.7,2.7-4.2,5.4-7.5,7.6c-3.3,2.2-7.3,3.9-11.8,4.4c-0.6,0.1-1.1,0.1-1.7,0.1c-0.6,0-1.1,0.1-1.7,0.1
			c-1.2-0.1-2.3,0-3.5-0.3c-2.4-0.3-4.7-1-7-1.9c-2.3-1-4.4-2.4-6.4-3.9c-2-1.6-3.7-3.6-5.2-5.8c-1.5-2.2-2.6-4.6-3.4-7.1
			c-0.8-2.6-1.1-5.2-1.2-7.9c0.1-2.6,0.4-5.3,1.2-7.8s1.9-4.9,3.4-7.1s3.2-4.1,5.2-5.8c2-1.6,4.2-3,6.4-3.9c4.6-2,9.5-2.6,14-2
			c4.5,0.6,8.6,2.2,11.8,4.4c3.3,2.2,5.7,5,7.5,7.6c1.8,2.7,2.7,5.3,3.4,7.5c0.1,0.6,0.3,1.1,0.4,1.6c0.1,0.5,0.2,1,0.2,1.4
			c0.1,0.9,0.2,1.6,0.2,2.2C-877.9,2499.8-877.8,2500.5-877.8,2500.5z M-877.8,2500.5c0,0,0-0.7-0.1-1.9c0-0.6-0.1-1.4-0.3-2.2
			c-0.1-0.4-0.1-0.9-0.2-1.4c-0.1-0.5-0.3-1-0.4-1.6c-0.6-2.2-1.6-4.8-3.4-7.5c-1.8-2.6-4.2-5.4-7.5-7.5c-3.3-2.1-7.4-3.7-11.8-4.2
			c-0.5-0.1-1.1-0.1-1.7-0.1c-0.6,0-1.2-0.1-1.7,0c-1.1,0.1-2.3,0.1-3.4,0.3c-2.3,0.3-4.6,1.1-6.8,2c-2.2,1-4.3,2.4-6.2,3.9
			c-1.9,1.7-3.6,3.6-5,5.7c-1.4,2.1-2.4,4.5-3.2,6.9c-0.7,2.5-1,5-1.1,7.6c0.1,2.5,0.4,5.1,1.1,7.6c0.8,2.4,1.8,4.8,3.2,6.9
			c1.4,2.1,3.1,4,5,5.6c1.9,1.6,4,3,6.2,3.9c2.2,1,4.5,1.7,6.8,2c1.1,0.2,2.3,0.2,3.5,0.3c0.6,0.1,1.1,0,1.7,0c0.6,0,1.1,0,1.7-0.1
			c4.4-0.5,8.5-2.1,11.8-4.2c3.3-2.1,5.7-4.9,7.5-7.5c1.8-2.6,2.8-5.3,3.4-7.5c0.1-0.6,0.3-1.1,0.4-1.6c0.1-0.5,0.2-1,0.2-1.4
			c0.1-0.9,0.3-1.6,0.3-2.2C-877.9,2501.2-877.8,2500.5-877.8,2500.5z"/>
	</g>
	<g>
		<path class="st2" d="M-902.9,2489.1c2.3,0,6.2,0,10,0.5c2.5,0.3,3.8,1.6,4,4.1c0.5,4.6,0.7,9.1,0,13.7c-0.4,2.3-1.6,3.6-3.9,3.9
			c-5,0.6-10,0.6-15,0.5c-2.8-0.1-5.6-0.1-8.3-0.5c-2.7-0.4-3.8-1.6-4.2-4.3c-0.6-4.2-0.4-8.4,0-12.6c0.3-3.3,1.8-4.7,5-4.9
			C-911.7,2489.2-908.1,2489.1-902.9,2489.1z M-907.7,2505.3c2.8-1.6,5.4-3.2,8.2-4.8c-2.8-1.6-5.5-3.2-8.2-4.7
			C-907.7,2499-907.7,2502-907.7,2505.3z"/>
	</g>
</g>
</svg>
