<?xml version="1.0" encoding="utf-8"?>
<!-- Generator: Adobe Illustrator 19.1.0, SVG Export Plug-In . SVG Version: 6.00 Build 0)  -->
<svg version="1.1" id="Layer_1" xmlns="http://www.w3.org/2000/svg" xmlns:xlink="http://www.w3.org/1999/xlink" x="0px" y="0px"
	 viewBox="0 0 200 30" style="enable-background:new 0 0 200 30;" xml:space="preserve">
<style type="text/css">
	.st0{fill:#3F6B3F;}
</style>
<g>
	<g>
		<path class="st0" d="M38.9,17.7l-1.5,3.5h-1.7l6.2-13.9h1.6l6.2,13.9H48l-1.5-3.5H38.9z M42.7,9.2l-3.1,7h6.2L42.7,9.2z"/>
		<path class="st0" d="M64.5,21.2l0-11.5l-5.1,10h-1l-5-10v11.5h-1.5V7.3h2l5.1,10l5.1-10H66v13.9H64.5z"/>
		<path class="st0" d="M71.4,17.7l-1.5,3.5h-1.7l6.2-13.9h1.6l6.2,13.9h-1.7L79,17.7H71.4z M75.2,9.2l-3.1,7h6.2L75.2,9.2z"/>
		<path class="st0" d="M85.3,19.7h9.3l0,1.5H83.2V20l9.2-11.1h-9V7.3h11v1.3L85.3,19.7z"/>
		<path class="st0" d="M110.8,14.3c0,3.9-3.2,7-7.3,7c-4.1,0-7.3-3.1-7.3-7c0-3.9,3.2-7,7.3-7C107.6,7.3,110.8,10.4,110.8,14.3z
			 M97.9,14.3c0,3.1,2.6,5.5,5.7,5.5s5.6-2.4,5.6-5.5c0-3.1-2.5-5.5-5.6-5.5S97.9,11.2,97.9,14.3z"/>
		<path class="st0" d="M123.7,21.2l-8.3-11.2v11.2h-1.6V7.3h1.6l8.3,11.2V7.3h1.6v13.9H123.7z"/>
		<path class="st0" d="M147.5,21.2l0-11.5l-5.1,10h-1l-5-10v11.5H135V7.3h2l5.1,10l5.1-10h1.9v13.9H147.5z"/>
		<path class="st0" d="M164.6,15.5c0,3.6-2.2,5.8-5.8,5.8c-3.7,0-5.9-2.2-5.9-5.8V7.3h1.6v8.2c0,2.7,1.6,4.3,4.3,4.3
			s4.2-1.6,4.2-4.3V7.3h1.6V15.5z"/>
		<path class="st0" d="M177,8.6l-0.7,1.5c-1.3-0.8-2.7-1.2-3.8-1.2c-1.8,0-3,0.7-3,1.8c0,3.6,7.8,1.7,7.8,6.7c0,2.3-2,3.8-5,3.8
			c-2,0-4-0.9-5.3-2.1l0.7-1.4c1.3,1.3,3.1,2,4.6,2c2,0,3.3-0.8,3.3-2.1c0-3.7-7.8-1.7-7.8-6.7c0-2.2,1.9-3.6,4.8-3.6
			C174.2,7.3,175.9,7.8,177,8.6z"/>
		<path class="st0" d="M180.6,21.2V7.3h1.6v13.9H180.6z"/>
		<path class="st0" d="M197.4,9.3l-1,1.2c-1.1-1.1-2.6-1.7-4.1-1.7c-3.1,0-5.7,2.4-5.7,5.5c0,3,2.5,5.5,5.7,5.5c1.5,0,3-0.6,4.1-1.7
			l1,1.1c-1.4,1.3-3.2,2.1-5.2,2.1c-4,0-7.2-3.1-7.2-7c0-3.9,3.2-7,7.2-7C194.3,7.3,196.1,8.1,197.4,9.3z"/>
	</g>
	<g>
		<g>
			<path class="st0" d="M7.7,13.4c0.6,0,1,0.3,1.3,0.9h0c0.4-0.6,0.8-0.9,1.3-0.9c0.9,0,1.5,0.8,1.5,2v3c0,0.1-0.1,0.2-0.2,0.2h-1
				c-0.1,0-0.2-0.1-0.2-0.2v-2.9c0-0.6-0.2-0.9-0.7-0.9c-0.5,0-0.7,0.4-0.7,1.1v2.7c0,0.1-0.1,0.2-0.2,0.2h-1
				c-0.1,0-0.2-0.1-0.2-0.2v-2.9c0-0.6-0.2-0.9-0.7-0.9c-0.5,0-0.7,0.4-0.7,1.1v2.7c0,0.1-0.1,0.2-0.2,0.2h-1
				c-0.1,0-0.2-0.1-0.2-0.2v-4.7c0-0.1,0.1-0.2,0.2-0.2h0.8c0.1,0,0.1,0.1,0.2,0.2l0.1,0.6h0C6.8,13.7,7.2,13.4,7.7,13.4z"/>
			<path class="st0" d="M16.5,13.6v4.7c0,0.1-0.1,0.2-0.2,0.2h-0.8c-0.1,0-0.1-0.1-0.2-0.2l-0.1-0.6h0c-0.2,0.6-0.6,0.9-1.2,0.9
				c-0.9,0-1.5-0.7-1.5-2v-3c0-0.1,0.1-0.2,0.2-0.2h1c0.1,0,0.2,0.1,0.2,0.2v2.9c0,0.6,0.2,0.9,0.7,0.9c0.5,0,0.7-0.4,0.7-1.1v-2.7
				c0-0.1,0.1-0.2,0.2-0.2h1C16.4,13.5,16.5,13.5,16.5,13.6z"/>
			<path class="st0" d="M19.7,14.9c-0.1-0.3-0.3-0.5-0.7-0.5c-0.3,0-0.6,0.2-0.6,0.4c0,0.2,0.2,0.4,0.6,0.5l0.7,0.2
				c0.9,0.2,1.2,0.7,1.2,1.5c0,0.9-0.8,1.6-1.9,1.6c-1,0-1.8-0.5-1.9-1.6c0-0.1,0-0.2,0.1-0.2l0.8-0.2c0.1,0,0.2,0,0.2,0.2
				c0.1,0.5,0.4,0.8,0.8,0.8c0.4,0,0.6-0.2,0.6-0.5c0-0.3-0.2-0.5-0.6-0.6l-0.5-0.1c-1.1-0.3-1.4-0.8-1.4-1.5c0-1,0.8-1.5,1.8-1.5
				c1,0,1.6,0.5,1.8,1.3c0,0.1,0,0.2-0.1,0.2L19.8,15C19.7,15,19.7,15,19.7,14.9z"/>
			<path class="st0" d="M22.2,11.6c0.4,0,0.7,0.3,0.7,0.7c0,0.5-0.3,0.7-0.7,0.7s-0.7-0.3-0.7-0.7C21.4,11.9,21.8,11.6,22.2,11.6z
				 M21.5,18.3v-4.7c0-0.1,0.1-0.2,0.2-0.2h1c0.1,0,0.2,0.1,0.2,0.2v4.7c0,0.1-0.1,0.2-0.2,0.2h-1C21.6,18.5,21.5,18.4,21.5,18.3z"
				/>
			<path class="st0" d="M27.5,16.9c-0.2,1.1-1,1.7-1.9,1.7c-1.2,0-2.2-1.1-2.2-2.6c0-1.5,0.9-2.6,2.2-2.6c0.9,0,1.7,0.6,1.9,1.7
				c0,0.1,0,0.2-0.1,0.2l-0.9,0.2c-0.1,0-0.2,0-0.2-0.1c-0.1-0.6-0.4-0.9-0.8-0.9c-0.6,0-0.8,0.6-0.8,1.6c0,1,0.3,1.6,0.8,1.6
				c0.4,0,0.6-0.3,0.8-0.9c0-0.1,0.1-0.1,0.2-0.1l0.9,0.2C27.5,16.7,27.5,16.8,27.5,16.9z"/>
			<path class="st0" d="M21.5,21c0.1,0.1,0.2,0.1,0.5,0.1c0.7-0.2,1.6-0.2,1.8,0c0.2,0.2-0.2,1.1-0.6,1.7c-0.1,0.2-0.2,0.4-0.1,0.5
				c0,0,0.1,0,0.1,0.1c0.1,0,0.3-0.1,0.5-0.3c0.4-0.3,0.7-0.8,0.8-1.2c0.2-0.5,0.2-1.1,0.1-1.3c-0.2-0.2-0.8-0.4-1.3-0.4
				c-0.5,0-1,0.1-1.5,0.4C21.7,20.6,21.5,20.8,21.5,21L21.5,21z"/>
			<path class="st0" d="M8.2,20.7c0,0.1,0.1,0.3,0.3,0.5c1.8,2.3,4.8,3.3,7.7,3.3c2.5,0,4.9-0.8,6.5-2.1c0.3-0.2,0.4-0.4,0.4-0.6
				c0-0.1,0-0.1-0.1-0.2c-0.1-0.1-0.3,0-0.6,0.1c-1.4,0.8-3.6,1.3-6,1.3c-2.6,0-5.5-0.7-7.6-2.4c-0.2-0.2-0.4-0.3-0.6-0.2
				C8.2,20.5,8.1,20.6,8.2,20.7L8.2,20.7z"/>
			<path class="st0" d="M3.2,10.7c-0.9,0-1.4-0.6-1.4-1.5c0-1.1,0.8-1.8,2.2-1.8c0.2,0,0.4,0,0.5,0V7.4c0-0.6-0.2-0.9-0.7-0.9
				C3.4,6.5,3.2,6.7,3.1,7c0,0.1-0.1,0.2-0.2,0.1L2.1,7C2,7,1.9,6.9,1.9,6.8c0.2-0.8,0.9-1.3,2-1.3c1.2,0,1.9,0.7,1.9,1.9v3
				c0,0.1-0.1,0.2-0.2,0.2H4.8c-0.1,0-0.1-0.1-0.2-0.2L4.5,9.9h0C4.3,10.4,3.8,10.7,3.2,10.7z M3.7,9.8c0.5,0,0.8-0.5,0.8-1.3V8.2
				c-0.1,0-0.2,0-0.3,0c-0.7,0-1.1,0.4-1.1,0.9C3.1,9.5,3.3,9.8,3.7,9.8z"/>
			<path class="st0" d="M9,5.5c0.6,0,1,0.3,1.3,0.9h0c0.4-0.6,0.8-0.9,1.3-0.9c0.9,0,1.5,0.8,1.5,2v3c0,0.1-0.1,0.2-0.2,0.2h-1
				c-0.1,0-0.2-0.1-0.2-0.2V7.6c0-0.6-0.2-0.9-0.7-0.9c-0.5,0-0.7,0.4-0.7,1.1v2.7c0,0.1-0.1,0.2-0.2,0.2h-1c-0.1,0-0.2-0.1-0.2-0.2
				V7.6C9.2,7,9,6.7,8.5,6.7c-0.5,0-0.7,0.4-0.7,1.1v2.7c0,0.1-0.1,0.2-0.2,0.2h-1c-0.1,0-0.2-0.1-0.2-0.2V5.8
				c0-0.1,0.1-0.2,0.2-0.2h0.8c0.1,0,0.1,0.1,0.2,0.2l0.1,0.6h0C8,5.8,8.5,5.5,9,5.5z"/>
			<path class="st0" d="M15.1,10.7c-0.9,0-1.4-0.6-1.4-1.5c0-1.1,0.8-1.8,2.2-1.8c0.2,0,0.4,0,0.5,0V7.4c0-0.6-0.2-0.9-0.7-0.9
				c-0.4,0-0.6,0.2-0.7,0.6c0,0.1-0.1,0.2-0.2,0.1L13.9,7c-0.1,0-0.2-0.1-0.1-0.2c0.2-0.8,0.9-1.3,2-1.3c1.2,0,1.9,0.7,1.9,1.9v3
				c0,0.1-0.1,0.2-0.2,0.2h-0.8c-0.1,0-0.1-0.1-0.2-0.2l-0.1-0.6h0C16.1,10.4,15.7,10.7,15.1,10.7z M15.6,9.8c0.5,0,0.8-0.5,0.8-1.3
				V8.2c-0.1,0-0.2,0-0.3,0c-0.7,0-1.1,0.4-1.1,0.9C15,9.5,15.2,9.8,15.6,9.8z"/>
			<path class="st0" d="M18.2,9.7c0-0.1,0-0.2,0.1-0.2l2-2.9h-1.8c-0.1,0-0.2-0.1-0.2-0.2V5.8c0-0.1,0.1-0.2,0.2-0.2h3.2
				c0.1,0,0.2,0.1,0.2,0.2v0.7c0,0.1,0,0.2-0.1,0.2l-2,2.9h2c0.1,0,0.2,0.1,0.2,0.2v0.7c0,0.1-0.1,0.2-0.2,0.2h-3.3
				c-0.1,0-0.2-0.1-0.2-0.2V9.7z"/>
			<path class="st0" d="M22,8.1c0-1.5,0.9-2.6,2.2-2.6c1.2,0,2.2,1.1,2.2,2.6c0,1.5-0.9,2.6-2.2,2.6C23,10.7,22,9.6,22,8.1z
				 M24.2,9.7c0.5,0,0.9-0.6,0.9-1.6c0-1-0.3-1.6-0.9-1.6c-0.5,0-0.8,0.6-0.8,1.6C23.4,9.1,23.7,9.7,24.2,9.7z"/>
			<path class="st0" d="M29.5,5.5c0.9,0,1.5,0.8,1.5,2v3c0,0.1-0.1,0.2-0.2,0.2h-1c-0.1,0-0.2-0.1-0.2-0.2V7.6
				c0-0.6-0.2-0.9-0.7-0.9c-0.5,0-0.8,0.4-0.8,1.1v2.7c0,0.1-0.1,0.2-0.2,0.2h-1c-0.1,0-0.2-0.1-0.2-0.2V5.8c0-0.1,0.1-0.2,0.2-0.2
				h0.8c0.1,0,0.1,0.1,0.2,0.2l0.1,0.6h0C28.5,5.8,28.9,5.5,29.5,5.5z"/>
		</g>
	</g>
</g>
</svg>
