<?xml version="1.0" encoding="utf-8"?>
<!-- Generator: Adobe Illustrator 19.1.0, SVG Export Plug-In . SVG Version: 6.00 Build 0)  -->
<svg version="1.1" id="Layer_1" xmlns="http://www.w3.org/2000/svg" xmlns:xlink="http://www.w3.org/1999/xlink" x="0px" y="0px"
	 viewBox="0 0 170 30" style="enable-background:new 0 0 170 30;" xml:space="preserve">
<style type="text/css">
	.st0{fill:#3F6B3F;}
</style>
<g>
	<g>
		<path class="st0" d="M36.8,17.7l-1.5,3.5h-1.7l6.2-13.9h1.6l6.2,13.9H46l-1.5-3.5H36.8z M40.6,9.2l-3.1,7h6.2L40.6,9.2z"/>
		<path class="st0" d="M55.1,7.3c3.4,0,5.4,1.7,5.4,4.7c0,3.1-2,4.8-5.4,4.8h-3.6v4.4h-1.6V7.3H55.1z M51.5,15.3H55
			c2.5,0,4-1.1,4-3.3c0-2.1-1.4-3.2-4-3.2h-3.6V15.3z"/>
		<path class="st0" d="M68.4,7.3c3.4,0,5.4,1.7,5.4,4.7c0,3.1-2,4.8-5.4,4.8h-3.6v4.4h-1.6V7.3H68.4z M64.8,15.3h3.6
			c2.5,0,4-1.1,4-3.3c0-2.1-1.4-3.2-4-3.2h-3.6V15.3z"/>
		<path class="st0" d="M84.1,19.7v1.5h-7.7V7.3H78v12.4H84.1z"/>
		<path class="st0" d="M88.3,8.9v4.6h7V15h-7v4.8h8.1v1.5h-9.7V7.3h9.4v1.5H88.3z"/>
		<path class="st0" d="M117.7,21.2l0-11.5l-5.1,10h-1l-5-10v11.5h-1.5V7.3h2l5.1,10l5.1-10h1.9v13.9H117.7z"/>
		<path class="st0" d="M134.7,15.5c0,3.6-2.2,5.8-5.8,5.8c-3.7,0-5.9-2.2-5.9-5.8V7.3h1.6v8.2c0,2.7,1.6,4.3,4.3,4.3
			c2.6,0,4.2-1.6,4.2-4.3V7.3h1.6V15.5z"/>
		<path class="st0" d="M147.1,8.6l-0.7,1.5c-1.3-0.8-2.7-1.2-3.8-1.2c-1.8,0-3,0.7-3,1.8c0,3.6,7.8,1.7,7.8,6.7c0,2.3-2,3.8-5,3.8
			c-2,0-4-0.9-5.3-2.1l0.7-1.4c1.3,1.3,3.1,2,4.6,2c2,0,3.3-0.8,3.3-2.1c0-3.7-7.8-1.7-7.8-6.7c0-2.2,1.9-3.6,4.8-3.6
			C144.3,7.3,146,7.8,147.1,8.6z"/>
		<path class="st0" d="M150.7,21.2V7.3h1.6v13.9H150.7z"/>
		<path class="st0" d="M167.6,9.3l-1,1.2c-1.1-1.1-2.6-1.7-4.1-1.7c-3.1,0-5.7,2.4-5.7,5.5c0,3,2.5,5.5,5.7,5.5c1.5,0,3-0.6,4.1-1.7
			l1,1.1c-1.4,1.3-3.2,2.1-5.2,2.1c-4,0-7.2-3.1-7.2-7c0-3.9,3.2-7,7.2-7C164.4,7.3,166.2,8.1,167.6,9.3z"/>
	</g>
	<path id="_Compound_Path_11_2_" class="st0" d="M25.7,6.3c-0.6-1.4-1.8-2.4-3.2-2.9c-0.9-0.2-1.9-0.3-2.9-0.3H9
		C8,3.1,7,3.2,6.1,3.4C4.7,3.8,3.5,4.9,2.9,6.3C2.5,7.4,2.4,8.5,2.4,9.6v10.7c-0.1,1.1,0.1,2.3,0.5,3.4c0.6,1.4,1.8,2.4,3.2,2.9
		C7,26.8,8,26.9,9,26.9h10.7c1,0,1.9-0.1,2.9-0.3c1.4-0.4,2.6-1.5,3.2-2.9c0.4-1.1,0.5-2.2,0.5-3.4V9.6C26.3,8.5,26.1,7.4,25.7,6.3z
		 M19.8,19.5c-0.1,0.3-0.2,0.6-0.3,0.8c-0.2,0.2-0.4,0.5-0.7,0.6c-0.3,0.1-0.5,0.2-0.8,0.3c-0.4,0.1-0.9,0.1-1.3,0.1
		c-0.3-0.1-0.6-0.2-0.9-0.4c-0.8-0.7-0.8-1.9-0.1-2.6c0,0,0,0,0,0c0.2-0.2,0.5-0.4,0.8-0.5c0.4-0.1,0.9-0.3,1.3-0.3
		c0.2,0,0.3-0.1,0.5-0.1c0.2,0,0.4-0.1,0.5-0.3c0.1-0.2,0.2-0.4,0.1-0.6l0-5.2c0-0.4-0.2-0.5-0.6-0.4c-0.3,0.1-6.1,1.2-6.1,1.2
		c-0.3,0-0.5,0.2-0.5,0.5c0,0,0,0.1,0,0.1l0,7.7c0,0.3,0,0.6-0.1,0.9c-0.1,0.3-0.2,0.6-0.3,0.8c-0.2,0.2-0.4,0.5-0.7,0.6
		c-0.3,0.1-0.5,0.3-0.8,0.3c-0.4,0.1-0.9,0.1-1.3,0.1c-0.3-0.1-0.6-0.2-0.9-0.4c-0.8-0.7-0.8-1.9-0.1-2.7c0.2-0.2,0.5-0.4,0.8-0.5
		C8.8,19.1,9.3,19,9.7,19c0.2,0,0.3-0.1,0.5-0.1c0.2,0,0.4-0.1,0.5-0.3c0.1-0.2,0.2-0.4,0.2-0.6V9.2c0-0.1,0-0.2,0-0.2
		c0-0.2,0.1-0.3,0.2-0.5c0.1-0.1,0.3-0.2,0.4-0.2l0,0l7.1-1.4c0.1,0,0.6-0.1,0.6-0.1c0.3,0,0.6,0.2,0.6,0.5c0,0.1,0,0.1,0,0.2
		l0,11.2C19.9,18.9,19.8,19.2,19.8,19.5L19.8,19.5z"/>
</g>
</svg>
