<?xml version="1.0" encoding="utf-8"?>
<!-- Generator: Adobe Illustrator 19.1.0, SVG Export Plug-In . SVG Version: 6.00 Build 0)  -->
<svg version="1.1" id="Layer_1" xmlns="http://www.w3.org/2000/svg" xmlns:xlink="http://www.w3.org/1999/xlink" x="0px" y="0px"
	 viewBox="0 0 55 55" style="enable-background:new 0 0 55 55;" xml:space="preserve">
<style type="text/css">
	.st0{opacity:0.2;fill:#F6F8F5;}
	.st1{fill:#F6F8F5;}
	.st2{fill:#3F6B3F;}
</style>
<g>
	<circle class="st0" cx="27.5" cy="27.5" r="26.7"/>
	<g>
		<path class="st1" d="M54.2,27.5c0,0,0,0.7-0.1,1.9c0,0.6-0.1,1.4-0.2,2.2c-0.1,0.4-0.1,0.9-0.2,1.4c-0.1,0.5-0.3,1-0.4,1.6
			c-0.6,2.2-1.6,4.9-3.4,7.5c-1.7,2.7-4.2,5.4-7.5,7.6c-3.3,2.2-7.3,3.9-11.8,4.4c-0.6,0.1-1.1,0.1-1.7,0.1c-0.6,0-1.1,0.1-1.7,0.1
			c-1.2-0.1-2.3,0-3.5-0.3c-2.4-0.3-4.7-1-7-1.9c-2.3-1-4.4-2.4-6.4-3.9c-2-1.6-3.7-3.6-5.2-5.8c-1.5-2.2-2.6-4.6-3.4-7.1
			c-0.8-2.6-1.1-5.2-1.2-7.9c0.1-2.6,0.4-5.3,1.2-7.8c0.8-2.5,1.9-4.9,3.4-7.1c1.5-2.2,3.2-4.1,5.2-5.8c2-1.6,4.2-3,6.4-3.9
			c4.6-2,9.5-2.6,14-2c4.5,0.6,8.6,2.2,11.8,4.4c3.3,2.2,5.7,5,7.5,7.6c1.8,2.7,2.7,5.3,3.4,7.5c0.1,0.6,0.3,1.1,0.4,1.6
			c0.1,0.5,0.2,1,0.2,1.4c0.1,0.9,0.2,1.6,0.2,2.2C54.1,26.8,54.2,27.5,54.2,27.5z M54.2,27.5c0,0,0-0.7-0.1-1.9
			c0-0.6-0.1-1.4-0.3-2.2c-0.1-0.4-0.1-0.9-0.2-1.4c-0.1-0.5-0.3-1-0.4-1.6c-0.6-2.2-1.6-4.8-3.4-7.5c-1.8-2.6-4.2-5.4-7.5-7.5
			C39,3.3,34.9,1.7,30.5,1.2c-0.5-0.1-1.1-0.1-1.7-0.1c-0.6,0-1.2-0.1-1.7,0c-1.1,0.1-2.3,0.1-3.4,0.3c-2.3,0.3-4.6,1.1-6.8,2
			c-2.2,1-4.3,2.4-6.2,3.9C8.8,9,7.1,10.9,5.7,13c-1.4,2.1-2.4,4.5-3.2,6.9c-0.7,2.5-1,5-1.1,7.6c0.1,2.5,0.4,5.1,1.1,7.6
			c0.8,2.4,1.8,4.8,3.2,6.9c1.4,2.1,3.1,4,5,5.6c1.9,1.6,4,3,6.2,3.9c2.2,1,4.5,1.7,6.8,2c1.1,0.2,2.3,0.2,3.5,0.3
			c0.6,0.1,1.1,0,1.7,0c0.6,0,1.1,0,1.7-0.1c4.4-0.5,8.5-2.1,11.8-4.2c3.3-2.1,5.7-4.9,7.5-7.5c1.8-2.6,2.8-5.3,3.4-7.5
			c0.1-0.6,0.3-1.1,0.4-1.6c0.1-0.5,0.2-1,0.2-1.4c0.1-0.9,0.3-1.6,0.3-2.2C54.1,28.2,54.2,27.5,54.2,27.5z"/>
	</g>
	<g>
		<path class="st2" d="M27.5,41.1c-2.4-0.1-4.9-0.1-7.3-0.4c-3.5-0.4-5.2-1.8-5.7-5.3c-0.8-5.3-0.8-10.6,0-15.8
			c0.5-3.4,1.9-4.8,5.3-5.2c5.2-0.7,10.4-0.7,15.6,0c3.5,0.5,4.9,1.9,5.3,5.3c0.7,5.2,0.7,10.4,0,15.6c-0.5,3.6-2.3,5-5.9,5.4
			C32.3,41.1,29.9,41.1,27.5,41.1z M27.5,38.4c2.2,0,4.5,0,6.7-0.2c2.6-0.2,3.8-1.4,4-4c0.3-4.5,0.3-8.9,0-13.4
			c-0.2-2.6-1.4-3.8-4-4c-4.5-0.3-8.9-0.3-13.4,0c-2.7,0.2-3.8,1.4-4,4.1c-0.3,4.5-0.3,8.9,0,13.4c0.2,2.5,1.4,3.7,3.9,4
			C23,38.5,25.2,38.4,27.5,38.4z"/>
		<path class="st2" d="M27.5,20.8c3.7,0,6.8,3,6.8,6.8c0,3.7-3.1,6.8-6.8,6.8c-3.7,0-6.7-3-6.8-6.7C20.7,23.9,23.7,20.8,27.5,20.8z
			 M27.5,31.6c2.2,0,4.1-1.9,4.1-4.1c0-2.2-1.8-4-4-4.1c-2.2-0.1-4.1,1.8-4.2,4C23.4,29.7,25.3,31.6,27.5,31.6z"/>
		<path class="st2" d="M35.6,20.8c0,0.7-0.6,1.3-1.4,1.3c-0.8,0-1.3-0.6-1.3-1.3c0-0.8,0.6-1.3,1.3-1.3C35,19.4,35.6,20.1,35.6,20.8
			z"/>
	</g>
</g>
</svg>
