<?xml version="1.0" encoding="utf-8"?>
<!-- Generator: Adobe Illustrator 19.1.0, SVG Export Plug-In . SVG Version: 6.00 Build 0)  -->
<svg version="1.1" id="Layer_1" xmlns="http://www.w3.org/2000/svg" xmlns:xlink="http://www.w3.org/1999/xlink" x="0px" y="0px"
	 viewBox="0 0 115 30" style="enable-background:new 0 0 115 30;" xml:space="preserve">
<style type="text/css">
	.st0{fill:#3F6B3F;}
</style>
<g>
	<g>
		<path class="st0" d="M42.6,8.6L42,10.1c-1.3-0.8-2.7-1.2-3.8-1.2c-1.8,0-3,0.7-3,1.8c0,3.6,7.8,1.7,7.8,6.7c0,2.3-2,3.8-5,3.8
			c-2,0-4-0.9-5.3-2.1l0.7-1.4c1.3,1.3,3.1,2,4.6,2c2,0,3.3-0.8,3.3-2.1c0-3.7-7.8-1.7-7.8-6.7c0-2.2,1.9-3.6,4.8-3.6
			C39.8,7.3,41.5,7.8,42.6,8.6z"/>
		<path class="st0" d="M51.5,7.3c3.4,0,5.4,1.7,5.4,4.7c0,3.1-2,4.8-5.4,4.8h-3.6v4.4h-1.6V7.3H51.5z M47.8,15.3h3.6
			c2.5,0,4-1.1,4-3.3c0-2.1-1.4-3.2-4-3.2h-3.6V15.3z"/>
		<path class="st0" d="M72.8,14.3c0,3.9-3.2,7-7.3,7c-4.1,0-7.3-3.1-7.3-7c0-3.9,3.2-7,7.3-7C69.5,7.3,72.8,10.4,72.8,14.3z
			 M59.8,14.3c0,3.1,2.6,5.5,5.7,5.5c3.1,0,5.6-2.4,5.6-5.5c0-3.1-2.5-5.5-5.6-5.5C62.4,8.8,59.8,11.2,59.8,14.3z"/>
		<path class="st0" d="M79.7,8.9v12.4h-1.6V8.9h-4.5V7.3h10.7v1.5H79.7z"/>
		<path class="st0" d="M86.6,21.2V7.3h1.6v13.9H86.6z"/>
		<path class="st0" d="M93.9,8.9v4.9h6.5v1.5h-6.5v6h-1.6V7.3h8.8v1.5H93.9z"/>
		<path class="st0" d="M108.5,21.2h-1.6v-4.7l-5.4-9.2h1.6l4.5,7.2l4.4-7.2h1.6l-5.3,9.1V21.2z"/>
	</g>
	<path class="st0" d="M24.3,15c0,6.4-5.2,11.7-11.9,11.5C6.3,26.4,1.1,21.3,1.3,14.7C1.4,8.5,6.5,3.3,13.2,3.5
		C19.3,3.6,24.3,8.7,24.3,15z M9.6,9.9c-0.3,0-0.5,0-0.8,0C7.9,10,7,10.1,6,10.3c-0.2,0-0.4,0.1-0.5,0.1C5,10.7,4.8,11.2,5,11.8
		c0.2,0.5,0.7,0.8,1.2,0.7c1.3-0.3,2.6-0.4,3.9-0.4c0.7,0,1.4,0,2.1,0.1c1.6,0.1,3.1,0.5,4.6,0.9c1.1,0.3,2.1,0.8,3.1,1.3
		c0.5,0.3,1.2,0.1,1.4-0.5c0.3-0.5,0.1-1.2-0.4-1.5c-0.3-0.2-0.7-0.3-1-0.5c-1.7-0.8-3.5-1.4-5.4-1.7c-1.3-0.2-2.7-0.4-4-0.4
		C10.2,9.9,9.9,9.9,9.6,9.9z M10.3,13.9c-0.5,0-0.9,0-1.4,0.1C8,14,7.1,14.1,6.3,14.3c-0.5,0.1-0.8,0.5-0.7,1
		c0.1,0.4,0.5,0.8,0.9,0.8c0.2,0,0.4-0.1,0.6-0.1c1-0.2,2-0.3,3-0.3c0.6,0,1.3,0,1.9,0.1c1.2,0.1,2.4,0.4,3.6,0.7
		c1,0.3,1.9,0.7,2.9,1.2c0.4,0.2,1,0.1,1.2-0.4c0.2-0.4,0.1-1-0.4-1.2c-1.1-0.6-2.2-1.1-3.4-1.4C14.1,14.2,12.2,13.9,10.3,13.9z
		 M10.4,17.4c-0.6,0-1.1,0-1.6,0.1c-0.7,0.1-1.4,0.2-2.1,0.3c-0.4,0.1-0.6,0.5-0.6,0.8c0.1,0.4,0.5,0.6,0.8,0.5
		c1-0.2,2.1-0.4,3.1-0.4c0.5,0,1,0,1.4,0.1c1.2,0.1,2.3,0.4,3.4,0.8c0.8,0.3,1.5,0.6,2.2,1c0.1,0.1,0.2,0.1,0.3,0.1
		c0.3,0,0.6-0.2,0.7-0.5c0.1-0.3-0.1-0.6-0.4-0.8c-0.9-0.5-1.9-0.9-2.9-1.3C13.5,17.7,11.9,17.4,10.4,17.4z"/>
</g>
</svg>
