<?xml version="1.0" encoding="utf-8"?>
<!-- Generator: Adobe Illustrator 19.1.0, SVG Export Plug-In . SVG Version: 6.00 Build 0)  -->
<svg version="1.1" id="Layer_1" xmlns="http://www.w3.org/2000/svg" xmlns:xlink="http://www.w3.org/1999/xlink" x="0px" y="0px"
	 viewBox="0 0 843.3 388" style="enable-background:new 0 0 843.3 388;" xml:space="preserve">
<style type="text/css">
	.st0{opacity:0.8;}
	.st1{fill:#B5DCC6;}
</style>
<g class="st0">
	<path class="st1" d="M6.3,185.8V6.3h46.1c37.6,0,57.7,20.6,57.7,47.8c0,14.8-5.3,24.7-19.6,36.1c19.2,8,29.8,25,29.8,44.1
		c0,24.5-13.8,51.4-60.6,51.4H6.3z M52.6,83.7c34.4,0,39.5-19.9,39.5-30.3c0-13.3-7.8-30.8-41-30.8H24.3v61.1H52.6z M58.2,169.5
		c23,0,44.1-9.2,44.1-35.2c0-20.4-17.7-34.4-44.1-34.4H24.3v69.6H58.2z"/>
	<polygon class="st1" points="125.1,185.8 125.1,6.3 223.3,6.3 223.3,22.6 143.1,22.6 143.1,87.1 220.7,87.1 220.7,103.3 
		143.1,103.3 143.1,169.5 223.3,169.5 223.3,185.8 	"/>
	<polygon class="st1" points="357,185.8 250.5,27.9 250,27.9 250,185.8 232.1,185.8 232.1,6.3 256.3,6.3 356.5,155.2 357,155.2 
		357,6.3 374.9,6.3 374.9,185.8 	"/>
	<path class="st1" d="M382.2,185.8V6.3h53.1c21.6,0,43.4,5.3,59.4,15.8c24.3,16,39,44.6,39,74.9c0,22.3-8.5,43.9-25.9,61.8
		c-17.5,18.2-42.9,26.9-73.2,26.9H382.2z M433.1,169.5c29.8,0,49.7-7.8,62.8-21.6c13.6-14.5,19.9-33.2,19.9-51.9
		c0-23.3-9.7-43.7-28.6-58.2c-12.6-9.7-31.8-15.3-54.8-15.3h-32.3v147H433.1z"/>
	<rect x="538.8" y="6.3" class="st1" width="17.9" height="179.5"/>
	<polygon class="st1" points="603.3,185.8 603.3,22.6 562.1,22.6 562.1,6.3 662.2,6.3 662.2,22.6 621.3,22.6 621.3,185.8 	"/>
	<path class="st1" d="M741.3,188.9c-49,0-94.8-39.8-94.8-91.9c0-51.7,42.2-93.8,94.8-93.8c52.1,0,95.1,41.7,95.1,92.9
		C836.4,146.8,793.4,188.9,741.3,188.9 M741.1,19.4c-42.4,0-76.6,35.9-76.6,77.6c0,40.5,35.2,75.7,76.9,75.7
		c42.9,0,77.1-35.2,77.1-76.4C818.4,54.8,784.2,19.4,741.1,19.4"/>
	<polygon class="st1" points="203.9,381.9 130,202.5 149.9,202.5 213.2,359.6 276.7,202.5 296.1,202.5 221.6,381.9 	"/>
	<rect x="302.1" y="202.5" class="st1" width="17.9" height="179.5"/>
	<path class="st1" d="M467.5,375.8c-11.9,6.1-27.9,9.2-45.4,9.2c-54.6,0-92.6-40.3-92.6-93.4c0-54.6,41.2-92.6,92.9-92.6
		c14.8,0,37.8,4.6,45.1,9.9v19.4c-7.5-5.8-30.1-12.9-45.1-12.9c-42.2,0-74.9,33-74.9,76.4c0,42.9,32.3,76.9,74.9,76.9
		c15.8,0,32.2-4.6,45.1-12.1V375.8z"/>
	<rect x="479.4" y="202.5" class="st1" width="17.9" height="179.5"/>
	<path class="st1" d="M601.6,385.1c-49,0-94.8-39.8-94.8-91.9c0-51.7,42.2-93.8,94.8-93.8c52.1,0,95.1,41.7,95.1,92.9
		C696.7,342.9,653.8,385.1,601.6,385.1 M601.4,215.5c-42.4,0-76.6,35.9-76.6,77.6c0,40.5,35.2,75.7,76.9,75.7
		c42.9,0,77.1-35.2,77.1-76.4C678.7,250.9,644.5,215.5,601.4,215.5"/>
</g>
</svg>
