<?xml version="1.0" encoding="utf-8"?>
<!-- Generator: Adobe Illustrator 19.1.0, SVG Export Plug-In . SVG Version: 6.00 Build 0)  -->
<svg version="1.1" id="Layer_1" xmlns="http://www.w3.org/2000/svg" xmlns:xlink="http://www.w3.org/1999/xlink" x="0px" y="0px"
	 viewBox="0 0 55 55" style="enable-background:new 0 0 55 55;" xml:space="preserve">
<style type="text/css">
	.st0{opacity:0.2;fill:#F6F8F5;}
	.st1{fill:#F6F8F5;}
	.st2{fill:#3F6B3F;}
</style>
<g>
	<circle class="st0" cx="27.5" cy="27.5" r="26.7"/>
	<g>
		<path class="st1" d="M54.2,27.5c0,0,0,0.7-0.1,1.9c0,0.6-0.1,1.4-0.2,2.2c-0.1,0.4-0.1,0.9-0.2,1.4c-0.1,0.5-0.3,1-0.4,1.6
			c-0.6,2.2-1.6,4.9-3.4,7.5c-1.7,2.7-4.2,5.4-7.5,7.6c-3.3,2.2-7.3,3.9-11.8,4.4c-0.6,0.1-1.1,0.1-1.7,0.1c-0.6,0-1.1,0.1-1.7,0.1
			c-1.2-0.1-2.3,0-3.5-0.3c-2.4-0.3-4.7-1-7-1.9c-2.3-1-4.4-2.4-6.4-3.9c-2-1.6-3.7-3.6-5.2-5.8c-1.5-2.2-2.6-4.6-3.4-7.1
			c-0.8-2.6-1.1-5.2-1.2-7.9c0.1-2.6,0.4-5.3,1.2-7.8c0.8-2.5,1.9-4.9,3.4-7.1c1.5-2.2,3.2-4.1,5.2-5.8c2-1.6,4.2-3,6.4-3.9
			c4.6-2,9.5-2.6,14-2c4.5,0.6,8.6,2.2,11.8,4.4c3.3,2.2,5.7,5,7.5,7.6c1.8,2.7,2.7,5.3,3.4,7.5c0.1,0.6,0.3,1.1,0.4,1.6
			c0.1,0.5,0.2,1,0.2,1.4c0.1,0.9,0.2,1.6,0.2,2.2C54.1,26.8,54.2,27.5,54.2,27.5z M54.2,27.5c0,0,0-0.7-0.1-1.9
			c0-0.6-0.1-1.4-0.3-2.2c-0.1-0.4-0.1-0.9-0.2-1.4c-0.1-0.5-0.3-1-0.4-1.6c-0.6-2.2-1.6-4.8-3.4-7.5c-1.8-2.6-4.2-5.4-7.5-7.5
			C39,3.3,34.9,1.7,30.5,1.2c-0.5-0.1-1.1-0.1-1.7-0.1c-0.6,0-1.2-0.1-1.7,0c-1.1,0.1-2.3,0.1-3.4,0.3c-2.3,0.3-4.6,1.1-6.8,2
			c-2.2,1-4.3,2.4-6.2,3.9C8.8,9,7.1,10.9,5.7,13c-1.4,2.1-2.4,4.5-3.2,6.9c-0.7,2.5-1,5-1.1,7.6c0.1,2.5,0.4,5.1,1.1,7.6
			c0.8,2.4,1.8,4.8,3.2,6.9c1.4,2.1,3.1,4,5,5.6c1.9,1.6,4,3,6.2,3.9c2.2,1,4.5,1.7,6.8,2c1.1,0.2,2.3,0.2,3.5,0.3
			c0.6,0.1,1.1,0,1.7,0c0.6,0,1.1,0,1.7-0.1c4.4-0.5,8.5-2.1,11.8-4.2c3.3-2.1,5.7-4.9,7.5-7.5c1.8-2.6,2.8-5.3,3.4-7.5
			c0.1-0.6,0.3-1.1,0.4-1.6c0.1-0.5,0.2-1,0.2-1.4c0.1-0.9,0.3-1.6,0.3-2.2C54.1,28.2,54.2,27.5,54.2,27.5z"/>
	</g>
	<g>
		<path class="st2" d="M29.1,16.1c2.3,0,6.2,0,10,0.5c2.5,0.3,3.8,1.6,4,4.1c0.5,4.6,0.7,9.1,0,13.7c-0.4,2.3-1.6,3.6-3.9,3.9
			c-5,0.6-10,0.6-15,0.5c-2.8-0.1-5.6-0.1-8.3-0.5c-2.7-0.4-3.8-1.6-4.2-4.3c-0.6-4.2-0.4-8.4,0-12.6c0.3-3.3,1.8-4.7,5-4.9
			C20.3,16.2,23.9,16.1,29.1,16.1z M24.3,32.3c2.8-1.6,5.4-3.2,8.2-4.8c-2.8-1.6-5.5-3.2-8.2-4.7C24.3,26,24.3,29,24.3,32.3z"/>
	</g>
</g>
</svg>
