<?xml version="1.0" encoding="utf-8"?>
<!-- Generator: Adobe Illustrator 19.1.0, SVG Export Plug-In . SVG Version: 6.00 Build 0)  -->
<svg version="1.1" id="Layer_1" xmlns="http://www.w3.org/2000/svg" xmlns:xlink="http://www.w3.org/1999/xlink" x="0px" y="0px"
	 viewBox="0 0 130 30" style="enable-background:new 0 0 130 30;" xml:space="preserve">
<style type="text/css">
	.st0{fill:#3F6B3F;}
</style>
<g>
	<g>
		<path class="st0" d="M40.1,21.3h-1.6v-4.7l-5.4-9.2h1.6l4.5,7.2l4.4-7.2h1.6l-5.3,9.1V21.3z"/>
		<path class="st0" d="M60.1,14.3c0,3.9-3.2,7-7.3,7c-4.1,0-7.3-3.1-7.3-7c0-3.9,3.2-7,7.3-7C56.9,7.3,60.1,10.4,60.1,14.3z
			 M47.1,14.3c0,3.1,2.6,5.5,5.7,5.5s5.6-2.4,5.6-5.5c0-3.1-2.5-5.5-5.6-5.5S47.1,11.2,47.1,14.3z"/>
		<path class="st0" d="M74.3,15.5c0,3.6-2.2,5.8-5.8,5.8c-3.7,0-5.9-2.2-5.9-5.8V7.4h1.6v8.2c0,2.7,1.6,4.3,4.3,4.3s4.2-1.6,4.2-4.3
			V7.4h1.6V15.5z"/>
		<path class="st0" d="M82.5,8.9v12.4h-1.6V8.9h-4.5V7.4H87v1.5H82.5z"/>
		<path class="st0" d="M100.7,15.5c0,3.6-2.2,5.8-5.8,5.8c-3.7,0-5.9-2.2-5.9-5.8V7.4h1.6v8.2c0,2.7,1.6,4.3,4.3,4.3
			c2.6,0,4.2-1.6,4.2-4.3V7.4h1.6V15.5z"/>
		<path class="st0" d="M110.4,7.4c2.8,0,4.5,1.3,4.5,3.5c0,1.6-0.9,2.8-2.6,3.1c2,0.3,3.2,1.6,3.2,3.5c0,2.4-1.9,3.8-5,3.8h-6V7.4
			H110.4z M106.1,13.4h4.2c1.9,0,3-0.8,3-2.3c0-1.4-1.1-2.2-3-2.2h-4.2V13.4z M106.1,19.7h4.2c2.3,0,3.6-0.9,3.6-2.5
			c0-1.5-1.3-2.4-3.6-2.4h-4.2V19.7z"/>
		<path class="st0" d="M120.4,8.9v4.6h7V15h-7v4.8h8.1v1.5h-9.7V7.4h9.4v1.5H120.4z"/>
	</g>
	<path class="st0" d="M25.8,8.8c-0.3-1.1-1.1-1.9-2.2-2.2c-1.9-0.5-9.7-0.5-9.7-0.5s-7.7,0-9.7,0.5C3.2,6.9,2.3,7.7,2.1,8.8
		c-0.5,1.9-0.5,6-0.5,6s0,4,0.5,6c0.3,1.1,1.1,1.9,2.2,2.2c1.9,0.5,9.7,0.5,9.7,0.5s7.7,0,9.7-0.5c1.1-0.3,1.9-1.1,2.2-2.2
		c0.5-1.9,0.5-6,0.5-6S26.3,10.7,25.8,8.8z M11.4,18.4V11l6.4,3.7L11.4,18.4z"/>
</g>
</svg>
