<?xml version="1.0" encoding="utf-8"?>
<!-- Generator: Adobe Illustrator 19.1.0, SVG Export Plug-In . SVG Version: 6.00 Build 0)  -->
<svg version="1.1" id="Layer_1" xmlns="http://www.w3.org/2000/svg" xmlns:xlink="http://www.w3.org/1999/xlink" x="0px" y="0px"
	 viewBox="-291 383 28 28" style="enable-background:new -291 383 28 28;" xml:space="preserve">
<style type="text/css">
	.st0{fill:#FFFFFF;}
</style>
<path id="_Compound_Path_11_2_" class="st0" d="M-266,388.6c-0.6-1.3-1.7-2.4-3.1-2.8c-0.9-0.2-1.8-0.3-2.8-0.3h-10.3
	c-0.9,0-1.9,0.1-2.8,0.3c-1.4,0.4-2.5,1.4-3.1,2.8c-0.4,1-0.5,2.2-0.5,3.3v10.3c0,1.1,0.1,2.2,0.5,3.3c0.6,1.3,1.7,2.4,3.1,2.8
	c0.9,0.2,1.8,0.3,2.8,0.3h10.3c0.9,0,1.9-0.1,2.8-0.3c1.4-0.4,2.5-1.4,3.1-2.8c0.4-1,0.5-2.2,0.5-3.3v-10.3
	C-265.5,390.7-265.6,389.6-266,388.6z M-271.7,401.3c-0.1,0.3-0.2,0.6-0.3,0.8c-0.2,0.2-0.4,0.4-0.6,0.6c-0.2,0.1-0.5,0.2-0.8,0.3
	c-0.4,0.1-0.8,0.1-1.2,0.1c-0.3-0.1-0.6-0.2-0.8-0.4c-0.7-0.7-0.8-1.8-0.1-2.5c0,0,0,0,0,0c0.2-0.2,0.5-0.4,0.7-0.5
	c0.4-0.1,0.8-0.2,1.3-0.3c0.1,0,0.3-0.1,0.4-0.1c0.2,0,0.4-0.1,0.5-0.3c0.1-0.2,0.2-0.4,0.1-0.6l0-5.1c0-0.4-0.2-0.5-0.5-0.4
	c-0.3,0.1-5.9,1.2-5.9,1.2c-0.3,0-0.5,0.2-0.4,0.5c0,0,0,0.1,0,0.1l0,7.4c0,0.3,0,0.6-0.1,0.8c-0.1,0.3-0.2,0.6-0.3,0.8
	c-0.2,0.2-0.4,0.4-0.6,0.6c-0.2,0.1-0.5,0.2-0.8,0.3c-0.4,0.1-0.8,0.1-1.2,0.1c-0.3-0.1-0.6-0.2-0.8-0.4c-0.7-0.7-0.8-1.8-0.1-2.6
	c0.2-0.2,0.5-0.4,0.7-0.5c0.4-0.1,0.8-0.2,1.3-0.3c0.1,0,0.3-0.1,0.4-0.1c0.2,0,0.4-0.1,0.5-0.3c0.1-0.2,0.2-0.4,0.2-0.6v-8.5
	c0-0.1,0-0.2,0-0.2c0-0.2,0.1-0.3,0.2-0.4c0.1-0.1,0.3-0.2,0.4-0.2l0,0l6.8-1.4c0.1,0,0.6-0.1,0.6-0.1c0.3,0,0.5,0.2,0.6,0.4
	c0,0.1,0,0.1,0,0.2l0,10.8C-271.7,400.8-271.7,401-271.7,401.3L-271.7,401.3z"/>
</svg>
