<?xml version="1.0" encoding="utf-8"?>
<!-- Generator: Adobe Illustrator 19.1.0, SVG Export Plug-In . SVG Version: 6.00 Build 0)  -->
<svg version="1.1" id="Layer_1" xmlns="http://www.w3.org/2000/svg" xmlns:xlink="http://www.w3.org/1999/xlink" x="0px" y="0px"
	 viewBox="0 0 28 28" style="enable-background:new 0 0 28 28;" xml:space="preserve">
<style type="text/css">
	.st0{fill:#FFFFFF;}
</style>
<g>
	<path class="st0" d="M14,26.5c-2.2-0.1-4.5-0.1-6.7-0.3c-3.2-0.4-4.8-1.6-5.3-4.8c-0.7-4.8-0.7-9.7,0-14.5C2.5,3.7,3.7,2.5,6.9,2
		c4.7-0.7,9.5-0.7,14.2,0c3.2,0.4,4.4,1.7,4.9,4.9c0.7,4.7,0.7,9.5,0,14.2c-0.5,3.3-2.1,4.6-5.4,5C18.4,26.4,16.2,26.4,14,26.5
		 M14,24c2,0,4.1,0,6.2-0.2c2.4-0.2,3.5-1.3,3.6-3.7c0.3-4.1,0.3-8.2,0-12.2c-0.2-2.4-1.3-3.5-3.7-3.7C16.1,4,12,4,7.9,4.2
		C5.5,4.4,4.4,5.5,4.2,8c-0.3,4.1-0.3,8.1,0,12.2c0.1,2.3,1.3,3.4,3.6,3.6C9.9,24,11.9,24,14,24"/>
	<path class="st0" d="M14,7.8c3.4,0,6.2,2.8,6.2,6.2c0,3.4-2.8,6.2-6.2,6.2c-3.4,0-6.1-2.7-6.2-6.2C7.8,10.7,10.6,7.9,14,7.8
		 M14,17.8c2,0,3.8-1.7,3.8-3.8c0-2-1.7-3.7-3.7-3.8c-2,0-3.8,1.7-3.8,3.7C10.2,16,12,17.8,14,17.8"/>
	<path class="st0" d="M21.4,7.9c0,0.7-0.6,1.2-1.3,1.2C19.5,9,19,8.5,19,7.8c0-0.7,0.6-1.2,1.2-1.2C20.9,6.6,21.5,7.2,21.4,7.9"/>
</g>
</svg>
