<?xml version="1.0" encoding="utf-8"?>
<!-- Generator: Adobe Illustrator 19.1.0, SVG Export Plug-In . SVG Version: 6.00 Build 0)  -->
<svg version="1.1" id="Layer_1" xmlns="http://www.w3.org/2000/svg" xmlns:xlink="http://www.w3.org/1999/xlink" x="0px" y="0px"
	 viewBox="-465 267 28 28" style="enable-background:new -465 267 28 28;" xml:space="preserve">
<g>
	<path d="M-451,293.5c-2.2-0.1-4.5-0.1-6.7-0.3c-3.2-0.4-4.8-1.6-5.3-4.8c-0.7-4.8-0.7-9.7,0-14.5c0.5-3.2,1.7-4.4,4.9-4.9
		c4.7-0.7,9.5-0.7,14.2,0c3.2,0.4,4.4,1.7,4.9,4.9c0.7,4.7,0.7,9.5,0,14.2c-0.5,3.3-2.1,4.6-5.4,5
		C-446.6,293.4-448.8,293.4-451,293.5 M-451,291c2,0,4.1,0,6.2-0.2c2.4-0.2,3.5-1.3,3.6-3.7c0.3-4.1,0.3-8.2,0-12.2
		c-0.2-2.4-1.3-3.5-3.7-3.7c-4-0.2-8.1-0.2-12.2,0c-2.4,0.2-3.5,1.3-3.7,3.8c-0.3,4.1-0.3,8.1,0,12.2c0.1,2.3,1.3,3.4,3.6,3.6
		C-455.1,291-453.1,291-451,291"/>
	<path d="M-451,274.8c3.4,0,6.2,2.8,6.2,6.2s-2.8,6.2-6.2,6.2s-6.1-2.7-6.2-6.2C-457.2,277.7-454.4,274.9-451,274.8 M-451,284.8
		c2,0,3.8-1.7,3.8-3.8c0-2-1.7-3.7-3.7-3.8c-2,0-3.8,1.7-3.8,3.7C-454.8,283-453,284.8-451,284.8"/>
	<path d="M-443.6,274.9c0,0.7-0.6,1.2-1.3,1.2c-0.6-0.1-1.1-0.6-1.1-1.3c0-0.7,0.6-1.2,1.2-1.2
		C-444.1,273.6-443.5,274.2-443.6,274.9"/>
</g>
</svg>
