<?xml version="1.0" encoding="utf-8"?>
<!-- Generator: Adobe Illustrator 19.1.0, SVG Export Plug-In . SVG Version: 6.00 Build 0)  -->
<svg version="1.1" id="Layer_1" xmlns="http://www.w3.org/2000/svg" xmlns:xlink="http://www.w3.org/1999/xlink" x="0px" y="0px"
	 viewBox="0 0 1030 400" style="enable-background:new 0 0 1030 400;" xml:space="preserve">
<style type="text/css">
	.st0{fill:#FFFFFF;}
</style>
<g>
	<g>
		<g>
			<path class="st0" d="M600.8,285.1c-30.9,0-61.5,0-92,0c-0.8,12.4,9.1,22.7,22.2,23.4c9.9,0.5,19-1.2,24.4-11
				c0.3-0.6,1.5-1.1,2.3-1.1c13.7-0.1,27.3,0,41.5,0c-1.8,10.7-6.6,19.3-14.1,26.4c-10.1,9.5-22.4,14.3-36,16.1
				c-20.5,2.8-40.3,0.8-58.4-10c-17.1-10.2-26-25.9-28.4-45.4c-1.7-13.8,0.5-26.9,6.3-40c-8.1,0-16,0-24.2,0c0,31,0,61.8,0,93
				c-15.9,0-31.5,0-47.6,0c0-30.9,0-61.9,0-93.3c-5,0-9.4-0.1-13.8,0c-2.4,0-3.4-0.8-3.3-3.3c0.1-8.5,0.1-17,0-25.6
				c0-2.3,0.8-3.1,3.1-3.1c4.4,0.1,8.9,0,13.6,0c0.5-4,0.6-7.8,1.4-11.4c3-15.4,12.8-24.2,27.8-27.6c11.5-2.6,31.9-2,44.1,1.1
				c0,10.5,0,21.1,0,31.2c-5.8,0-11.3-0.1-16.8,0c-5.1,0.2-6.9,1.7-8.2,6.5c8.1,0,16.2,0,24.8,0c0,9.8,0,19.1,0,28.5
				c14.7-23,36.4-31.6,62.1-31.9c25.9-0.3,47.7,7.9,62.3,31.2c0-9,0-17.9,0-27.4c5.5,0,10.6,0,16.4,0c0-3,0-5.5,0-8
				c0-7.2,0-14.3,0-21.5c0-1.7-0.1-3.3,2.4-3.3c14.5,0.1,29,0.1,43.4,0.2c0.2,0,0.5,0.2,1.2,0.6c0,10.2,0,20.7,0,31.6
				c9,0,17.6,0,26.6,0c0,10.8,0,21,0,31.9c-8.7,0-17.3,0-26.3,0c-0.1,2-0.3,3.4-0.3,4.8c0,14.3,0,28.7,0,43
				c0,10.5,2.9,13.5,13.4,13.8c4.2,0.1,8.4,0,13.3,0c0,2.8,0,5.7,0,8.6c0,6.8,0.1,13.5-0.1,20.3c0,1.1-1.1,3-1.9,3.1
				c-14.8,2-29.6,3.5-44.4,0.5c-18.7-3.8-27-14.2-27.2-33.7c-0.2-18.5,0-37.1-0.1-55.6c0-1.5,0-2.9,0-4.6c-5.2,0-9.8,0-15,0
				C600.3,256.8,602.9,270.3,600.8,285.1z M556.1,259.5c-1.4-12.7-10.6-20.9-23-20.9c-13.4-0.1-22.5,7.7-24,20.9
				C524.7,259.5,540.3,259.5,556.1,259.5z"/>
			<path class="st0" d="M579.4,167.5c0-41.9,0-83.3,0-125.1c15.1,0,29.9,0,45.2,0c0,7.3,0,14.5,0,21.7c0.3,0.1,0.5,0.2,0.8,0.2
				c0.3-0.4,0.8-0.8,1-1.3c6-15.8,19.4-24.6,36.3-23.4c11,0.8,8.7-0.3,8.9,9.6c0.2,8.5,0,17,0,26c0.7-0.8,1.1-1,1.2-1.3
				c4.5-17.5,16.7-27,33.2-31.6c21.7-6.1,43.4-5.7,64.3,3.3c15.3,6.6,22.8,19.2,23.4,35.5c0.6,18.6,0.1,37.3,0.6,56
				c0.3,10,1.5,20.1,2.4,30.7c-4.6,0-10.2,0-15.7,0c-8.5,0-17-0.2-25.6,0c-2.9,0.1-4.2-1-4.6-3.7c-0.5-3.4-1.1-6.9-1.8-10.5
				c-17.9,17.6-39.6,22.1-61.8,12.9c-13.9-5.7-21.7-17.9-21.8-33.9c-0.1-15.7,7.4-27.5,21.1-33.5c12-5.3,24.9-5.9,37.7-7.2
				c5.4-0.5,10.8-0.9,16.1-1.8c8.3-1.4,10.9-8.5,5.4-15.1c-4.8-5.8-11.5-6.2-18.2-5c-6.2,1.2-10.7,4.7-11.8,11.3
				c-0.4,2.5-1.4,3.3-4,3.3c-12.6-0.1-25.2,0.1-37.7-0.1c-3.1,0-6.1-1.1-9.2-1.3c-4.3-0.3-8.7-0.7-12.9-0.2
				c-14.6,1.7-23.8,10.8-24.6,25.6c-0.9,17.9-0.8,35.9-0.8,53.9c0,4.2-1.2,5.2-5.2,5.1c-12.6-0.2-25.2,0-37.7,0
				C582.2,167.7,581,167.6,579.4,167.5z M748.6,113.5c-8.2,1.7-15.7,3.1-23.2,4.8c-2.2,0.5-4.4,1.2-6.5,2.1
				c-4.7,2.1-7.4,6.3-7.1,10.8c0.3,5,3.2,8.5,8.5,10.1c12.3,3.7,25.2-3.6,27.3-15.8C748.2,121.8,748.2,117.9,748.6,113.5z"/>
			<path class="st0" d="M243,252.5c-6.6-1.3-14-1.7-21.3,0.4c-9.9,2.9-16,9.5-18.1,19.4c-1.1,5.4-1.7,11-1.8,16.5
				c-0.2,14.5-0.1,28.9-0.1,43.4c0,1.3,0,2.7,0,4.4c-15.9,0-31.5,0-47.4,0c0-41.6,0-83.2,0-125c1.1-0.1,2-0.3,2.9-0.3
				c13,0,26,0.1,39-0.1c3,0,4.1,0.8,4,3.9c-0.2,6.2-0.1,12.4-0.1,19.7c0.9-1.5,1.3-2.1,1.6-2.8c5.8-14.9,17.4-23.1,33.6-23.5
				c11.3-0.3,11.3-0.3,11.3,10.6c0,7.2,0.1,14.3,0.1,21.5c0,0.9,0.2,1.7,0.3,3c2.8-4.2,5-8.2,7.8-11.8c9.2-11.7,21.6-18.5,36-21.8
				c17.4-4,34.7-3.6,51.5,2.3c28.1,9.8,43.1,33.8,41.6,65.6c-1.6,34.3-24.8,58-59.4,61.5c-15.7,1.6-31.1,0.6-45.8-5.6
				c-22.8-9.8-35-27.5-36.8-52C241.2,272.3,242.5,262.7,243,252.5z M335.9,273.7c0.1-7.4-1.1-13.6-3.8-20.3
				c-3.5-8.5-10.9-12-20-11.8c-8.9,0.2-15.8,3.9-19.5,12.1c-5.9,13.3-5.8,26.8-0.2,40.1c3.4,8,10.2,12,19,12.2
				c9.1,0.2,16.9-2.7,20.6-11.4C334.7,288.4,335.8,280.9,335.9,273.7z"/>
			<path class="st0" d="M55.5,321.5c0,20.5,0,40,0,59.8c-15.7,0-31.1,0-46.8,0c0-56.5,0-113,0-169.8c15.3,0,30.6,0,46.5,0
				c0,5.4,0,10.9,0,17c3.1-3.7,5.4-7,8.3-9.7c9.3-8.7,20.8-11.9,33.2-11.3c25.6,1.3,42.6,15.1,49.3,39.9c5.9,21.7,5.1,43-4.3,63.8
				c-10.1,22.2-30.9,30.5-52.6,28.4C73.2,338.1,67.1,334.4,55.5,321.5z M81.5,242.6c-13-0.1-20.7,5.1-24.1,15.3
				c-3.8,11.4-3.8,22.9,0.6,34.1c3.3,8.5,10.9,13.2,20.3,13.3c9.7,0.1,16.8-4.4,20.4-13.1c5-12,5-24.3,0-36.3
				C95.2,247.2,88.3,242.8,81.5,242.6z"/>
			<path class="st0" d="M142.6,42.4c15.9,0,31.3,0,47.3,0c0,2.7,0,5.2,0,7.7c0,19.5-0.1,39,0,58.4c0,4.6,0.5,9.2,1.4,13.7
				c1.2,5.9,5.1,9.6,11,11.3c12.5,3.4,23.5-3.1,26.1-15.7c0.8-3.9,1.2-8,1.2-12.1c0.1-19.5,0.1-39,0.1-58.4c0-1.5,0-2.9,0-4.7
				c15.7,0,31,0,46.5,0c0,41.6,0,83.1,0,124.9c-15.3,0-30.5,0-46.4,0c0-5.8,0-11.7,0-17.5c-0.3-0.1-0.6-0.1-0.9-0.2
				c-2.2,2.8-4.1,5.8-6.6,8.4c-6.5,6.7-14.6,10.8-23.9,11.9c-15.9,1.9-31.2,0.8-43.4-11.6c-7.9-8.1-10.8-18.3-11.9-29.1
				c-0.6-6.2-0.7-12.4-0.7-18.6c-0.1-21.1,0-42.2,0-63.3C142.6,45.9,142.6,44.4,142.6,42.4z"/>
			<path class="st0" d="M522.5,42.3c15.7,0,30.8,0,46.3,0c0,41.7,0,83.2,0,125.1c-15.3,0-30.5,0-46.2,0c0-5.8,0-11.5,0-18.3
				c-1.2,1.3-1.7,1.8-2.1,2.4c-12.2,17.3-29.5,21.6-49.1,18.5c-21.8-3.5-34.5-18.6-35.6-42.3c-0.8-17.5-0.5-35.1-0.6-52.7
				c-0.1-9.7,0-19.5,0-29.2c0-1.8-0.2-3.5,2.6-3.5c14.7,0.1,29.5,0,44.8,0c0,1.8,0,3.3,0,4.9c0,21.6,0,43.3,0,64.9
				c0,2-0.1,4.1,0.3,6.1c2,11.4,7.8,16.3,18.7,16.1c10.9-0.2,18.6-7.2,20.1-18.4c0.5-4,0.8-8.1,0.8-12.1c0.1-19.1,0-38.1,0-57.2
				C522.5,45.2,522.5,44,522.5,42.3z"/>
			<path class="st0" d="M923.9,253.1c-14.4,0-28.5,0-42.9,0c0.8-17,8.4-29.5,23.5-37.2c13-6.6,26.9-8.6,41.3-8.3
				c10.5,0.2,20.7,1.6,30.5,5.4c17.3,6.8,26.4,19.7,26.8,38.2c0.4,17.7,0.2,35.4,0.2,53.1c-0.1,10.8,0.4,21.6,4.3,32.5
				c-7.3,0-14,0-20.8,0c-7.2,0-14.3-0.2-21.5,0c-3.1,0.1-4.4-1.1-4.8-4c-0.4-3.4-1-6.9-1.5-10.9c-2.3,2.5-4.1,4.8-6.3,6.7
				c-10.9,9.6-24.1,11.6-37.9,10.9c-8.3-0.4-16.3-2.3-23.5-6.9c-12.4-8-17-19.9-16.2-34c0.9-13.9,7.5-24.3,20.4-30.3
				c9.8-4.6,20.4-5.9,31.1-7c7.7-0.8,15.4-1.3,23-2.4c3.1-0.5,7.6-0.1,8.2-4.9c0.8-6.3-1.8-11.4-6.5-13.7
				C939.4,234.6,927.7,240.1,923.9,253.1z M957.4,282.9c-6.8,1.3-13.7,2.4-20.5,3.9c-2.9,0.6-5.8,1.5-8.4,2.7
				c-5,2.2-7.2,6.2-6.8,11.3c0.4,5.1,2.9,8,8.4,9.5c5.1,1.4,10.1,1.3,15-0.9C955.1,305.1,959.3,295.8,957.4,282.9z"/>
			<path class="st0" d="M139.6,91.6c-1.1,0.1-2.2,0.3-3.4,0.3c-12.5,0.1-24.9,0-37.3,0.1c-2.6,0-3.9-0.5-4.6-3.5
				c-2.1-9.8-8.2-14.9-17.6-15.7C66,72,58.5,76.2,55,85.6c-4.8,12.6-4.7,25.5-0.1,38.1c3.4,9.4,11.5,13.8,22,13
				c9.3-0.8,15.5-6.4,17.7-16.2c0.3-1.3,0.6-2.6,0.9-4.1c14.8,0,29.6,0,44.8,0c-1.4,18.2-8.5,32.8-23.5,43.1
				c-14,9.6-29.9,11.9-46.5,11.4c-12.2-0.4-23.8-3.1-34.6-9c-19.1-10.5-28.8-27.3-31-48.4C2.6,92.7,7.3,73.8,22,58.3
				c10.5-11,23.8-16.7,38.6-18.8c19.7-2.8,38.7-0.7,55.8,10.1c14.1,8.9,21.2,22.3,23.4,38.5c0.1,0.8,0.1,1.6,0.1,2.4
				C139.9,90.8,139.8,91.1,139.6,91.6z"/>
			<path class="st0" d="M874.8,260.8c-2,0-3.6,0-5.2,0c-11.6,0-23.3,0.1-34.9,0.1c-1.9,0-3.5,0.1-4.2-2.5
				c-3-10.8-9.1-16.2-18.2-16.6c-11.3-0.4-18.9,4.3-22.4,15.4c-3.8,12.2-3.8,24.5,1.4,36.5c3.7,8.5,11.7,13,20.9,12.3
				c9.5-0.8,16.1-6.3,18.1-15.8c0.9-4.2,2.5-5.3,6.6-5.2c11.2,0.3,22.5,0.1,33.7,0.1c1.6,0,3.2,0,5,0c-1.1,17.6-7.2,32.1-21.4,42.3
				c-25.5,18.4-68.7,16.8-92.7-3.4c-14.1-11.9-20.3-27.7-20.9-45.8c-0.9-22.7,5.5-42.5,24.2-56.9c9.9-7.6,21.3-11.6,33.6-12.9
				c18.1-1.9,35.7-0.5,51.8,9.1c15.3,9.2,23.7,22.9,24.9,40.8C875,258.8,874.9,259.4,874.8,260.8z"/>
			<path class="st0" d="M432.1,134.5c0,8.3,0,16.6,0,24.9c0,7.7,0,7.6-7.7,8.5c-13.9,1.6-27.7,2.6-41.5-0.9
				c-15-3.8-23.6-13.1-24.3-28.5c-0.8-17-0.4-34.1-0.6-51.1c0-4.3,0-8.6,0-13.4c-5.9,0-11.3,0-17.1,0c0-10.8,0-21.1,0-31.8
				c5.5,0,10.9,0,17,0c0-10.9,0-21.5,0-32.3c16,0,31.2,0,46.9,0c0,10.5,0,21,0,32c9.3,0,18.1,0,27.1,0c0,10.8,0,21,0,31.9
				c-8.9,0-17.7,0-27,0c0,5.5,0,10.3,0,15.1c0.1,12,0,24.1,0.5,36.1c0.3,6.3,3.1,8.8,9.6,9.3C420.5,134.8,426.1,134.5,432.1,134.5z"
				/>
			<path class="st0" d="M288.2,5c15.9,0,31.4,0,47.3,0c0,54,0,108,0,162.3c-0.8,0.1-1.7,0.4-2.5,0.4c-13.7,0.1-27.3,0-41,0.2
				c-2.8,0-4.1-0.5-4.1-3.8C288,112.3,288,60.5,288,8.7C288,7.7,288.1,6.6,288.2,5z"/>
			<path class="st0" d="M736.4,336.7c-15.8,0-31.2,0-46.9,0c0-41.8,0-83.4,0-125.3c1-0.1,1.7-0.2,2.5-0.2c13.7,0,27.3,0,41,0
				c2.2,0,3.8,0.1,3.8,3.1c-0.1,40.1-0.1,80.3-0.1,120.4C736.7,335.3,736.5,335.8,736.4,336.7z"/>
			<path class="st0" d="M736.5,177.1c0,9.1,0,18,0,27.2c-15.7,0-31.3,0-47.1,0c0-9,0-18,0-27.2C705.1,177.1,720.7,177.1,736.5,177.1
				z"/>
			<path class="st0" d="M514.9,200.8c5-8.2,9.5-15.4,14-22.6c0.5-0.7,1.7-1.3,2.7-1.3c12.5-0.1,25.1-0.1,38.5-0.1
				c-1.4,1.6-2.2,2.7-3.1,3.8c-5.3,6-10.5,11.9-15.9,17.8c-1,1.1-2.6,2.2-3.9,2.2C536.7,200.9,526.3,200.8,514.9,200.8z"/>
		</g>
	</g>
	<g>
		<path class="st0" d="M1001.8,395c-13.3,0.1-24-10.7-24.1-24c-0.1-13.2,10.8-24.1,24.1-24.1c13.3,0,23.9,10.6,24,24
			C1025.9,384.1,1015.1,394.9,1001.8,395z M1001.7,390.1c10.6,0,19.2-8.6,19.2-19.2c0-10.6-8.5-19.1-19.1-19.2
			c-10.5-0.1-19.2,8.4-19.3,19.1C982.4,381.4,991.1,390.1,1001.7,390.1z"/>
		<path class="st0" d="M1006.5,371c1,1,2.2,1.9,2.8,3c1.6,2.8,3.1,5.8,4.7,8.9c-2.4,0-4.5,0-6.6,0c-0.3,0-0.6-0.5-0.8-0.8
			c-0.9-1.8-1.8-3.6-2.7-5.4c-1.5-3-2.7-3.6-6.2-3.3c0,3.1,0,6.2,0,9.4c-2.2,0-4.3,0-6.4,0c0-8.3,0-16.6,0-25.1c1.9,0,3.8-0.1,5.7,0
			c2.8,0.1,5.6,0,8.4,0.5c4.6,0.8,6.7,5.4,4.6,9.7C1009.2,369.6,1007.9,370.5,1006.5,371z M997.7,368.9c1.2,0,2.3,0,3.4,0
			c0.3,0,0.7-0.1,1-0.2c1.5-0.4,2.1-1.4,2.1-3.1c0-1.7-0.7-2.7-2.1-3c-1.4-0.2-2.8-0.2-4.3-0.2C997.7,364.7,997.7,366.8,997.7,368.9
			z"/>
	</g>
</g>
</svg>
