<?xml version="1.0" encoding="utf-8"?>
<!-- Generator: Adobe Illustrator 19.1.0, SVG Export Plug-In . SVG Version: 6.00 Build 0)  -->
<svg version="1.1" id="Layer_1" xmlns="http://www.w3.org/2000/svg" xmlns:xlink="http://www.w3.org/1999/xlink" x="0px" y="0px"
	 viewBox="-291 383 28 28" style="enable-background:new -291 383 28 28;" xml:space="preserve">
<style type="text/css">
	.st0{fill:#FFFFFF;}
</style>
<path class="st0" d="M-265.5,397c0,6.4-5.2,11.7-11.8,11.5c-6.1-0.2-11.3-5.2-11.2-11.8c0.1-6.2,5.3-11.4,11.8-11.2
	C-270.5,385.7-265.5,390.7-265.5,397z M-280.2,391.9c-0.3,0-0.5,0-0.8,0c-0.9,0.1-1.9,0.2-2.8,0.4c-0.2,0-0.4,0.1-0.5,0.1
	c-0.5,0.3-0.7,0.8-0.5,1.3c0.2,0.5,0.7,0.8,1.2,0.7c1.3-0.3,2.6-0.4,3.9-0.4c0.7,0,1.4,0,2,0.1c1.6,0.1,3.1,0.5,4.6,0.9
	c1.1,0.3,2.1,0.8,3.1,1.3c0.5,0.3,1.2,0.1,1.4-0.5c0.3-0.5,0.1-1.2-0.4-1.5c-0.3-0.2-0.7-0.3-1-0.5c-1.7-0.8-3.5-1.4-5.4-1.7
	c-1.3-0.2-2.6-0.4-4-0.4C-279.6,391.9-279.9,391.9-280.2,391.9z M-279.5,395.9c-0.5,0-0.9,0-1.4,0.1c-0.9,0.1-1.7,0.2-2.6,0.4
	c-0.5,0.1-0.8,0.5-0.7,1c0.1,0.4,0.5,0.8,0.9,0.7c0.2,0,0.4-0.1,0.6-0.1c1-0.2,2-0.3,2.9-0.3c0.6,0,1.3,0,1.9,0.1
	c1.2,0.1,2.4,0.4,3.6,0.7c1,0.3,1.9,0.7,2.9,1.2c0.4,0.2,1,0.1,1.2-0.4c0.2-0.4,0.1-0.9-0.4-1.2c-1.1-0.6-2.2-1.1-3.4-1.4
	C-275.7,396.2-277.6,395.9-279.5,395.9z M-279.4,399.4c-0.6,0-1.1,0-1.6,0.1c-0.7,0.1-1.4,0.2-2.1,0.3c-0.4,0.1-0.6,0.5-0.5,0.8
	c0.1,0.4,0.4,0.6,0.8,0.5c1-0.2,2.1-0.4,3.1-0.4c0.5,0,1,0,1.4,0.1c1.2,0.1,2.3,0.4,3.4,0.8c0.8,0.3,1.5,0.6,2.2,1
	c0.1,0.1,0.2,0.1,0.3,0.1c0.3,0,0.6-0.2,0.7-0.5c0.1-0.3-0.1-0.6-0.4-0.8c-0.9-0.5-1.9-0.9-2.9-1.2
	C-276.3,399.7-277.9,399.4-279.4,399.4z"/>
</svg>
