<?xml version="1.0" encoding="utf-8"?>
<!-- Generator: Adobe Illustrator 19.1.0, SVG Export Plug-In . SVG Version: 6.00 Build 0)  -->
<svg version="1.1" id="Layer_1" xmlns="http://www.w3.org/2000/svg" xmlns:xlink="http://www.w3.org/1999/xlink" x="0px" y="0px"
	 viewBox="-465 267 28 28" style="enable-background:new -465 267 28 28;" xml:space="preserve">
<path d="M-453,282.2c-0.6-0.2-1.1-0.2-1.7-0.1c-1.8,0.3-3.1,1.8-3.1,3.6c0,1.8,1.3,3.4,3,3.7c2.3,0.4,4.4-1.3,4.4-3.7
	c0-3.4,0-6.8,0-10.2v-6.7v-0.3h4.1c0.1,1.7,0.7,3.2,1.9,4.4c1.2,1.2,2.7,1.8,4.4,1.8v4.1c-2.3,0-4.4-0.7-6.3-2.1v0.3
	c0,2.9,0,5.7,0,8.6c0.1,4-2.9,7.2-6.5,7.8c-4.5,0.8-8.7-2.4-9.2-6.9c-0.4-4,2.5-7.7,6.5-8.4c0.8-0.1,1.5-0.1,2.3,0
	c0.1,0,0.2,0.1,0.2,0.2V282.2L-453,282.2"/>
</svg>
