<?xml version="1.0" encoding="utf-8"?>
<!-- Generator: Adobe Illustrator 19.1.0, SVG Export Plug-In . SVG Version: 6.00 Build 0)  -->
<svg version="1.1" id="Layer_1" xmlns="http://www.w3.org/2000/svg" xmlns:xlink="http://www.w3.org/1999/xlink" x="0px" y="0px"
	 viewBox="0 0 28 28" style="enable-background:new 0 0 28 28;" xml:space="preserve">
<style type="text/css">
	.st0{fill:#FFFFFF;}
</style>
<path class="st0" d="M12,15.2c-0.6-0.2-1.1-0.2-1.7-0.1c-1.8,0.3-3.1,1.8-3.1,3.6c0,1.8,1.3,3.4,3,3.7c2.3,0.4,4.4-1.3,4.4-3.7
	c0-3.4,0-6.8,0-10.2V1.8V1.5h4.1c0.1,1.7,0.7,3.2,1.9,4.4c1.2,1.2,2.7,1.8,4.4,1.8v4.1c-2.3,0-4.4-0.7-6.3-2.1V10c0,2.9,0,5.7,0,8.6
	c0.1,4-2.9,7.2-6.5,7.8C7.7,27.2,3.5,24,3,19.5c-0.4-4,2.5-7.7,6.5-8.4c0.8-0.1,1.5-0.1,2.3,0c0.1,0,0.2,0.1,0.2,0.2L12,15.2
	C12,15.2,12,15.2,12,15.2"/>
</svg>
