<?xml version="1.0" encoding="utf-8"?>
<!-- Generator: Adobe Illustrator 19.1.0, SVG Export Plug-In . SVG Version: 6.00 Build 0)  -->
<svg version="1.1" id="Layer_1" xmlns="http://www.w3.org/2000/svg" xmlns:xlink="http://www.w3.org/1999/xlink" x="0px" y="0px"
	 viewBox="-465 267 28 28" style="enable-background:new -465 267 28 28;" xml:space="preserve">
<path d="M-452.7,283.8c-0.2,0.2-0.4,0.4-0.6,0.6c-0.9,1-1.8,2.1-2.7,3.1c-1,1.3-2,2.5-3.1,3.7c-0.7,0.8-1.3,1.5-2,2.3l-0.1,0.1h-1.7
	c-0.1,0-0.2,0-0.3,0c3.2-3.7,6.4-7.4,9.5-11.1c-3.1-4.7-6.3-9.4-9.5-14c0.1,0,0.1,0,0.1,0h7.1c0.1,0,0.1,0,0.2,0.1
	c2.1,3,4.1,6,6.1,8.9l0.1,0.1c0.1-0.1,0.1-0.1,0.2-0.2c0.6-0.7,1.2-1.3,1.7-2c1-1.2,2-2.3,3-3.5c1-1.1,1.9-2.2,2.9-3.3
	c0.1-0.1,0.2-0.1,0.3-0.1c0.6,0,1.2,0,1.8,0c0,0,0.1,0,0.2,0c-0.1,0.1-0.1,0.2-0.2,0.2c-1.5,1.7-3,3.5-4.5,5.2
	c-1.3,1.5-2.6,3-3.9,4.6c-0.1,0.1-0.3,0.3-0.4,0.4s-0.1,0.1,0,0.2c0.4,0.6,0.8,1.3,1.3,1.9c2.7,4,5.5,8,8.2,11.9
	c0.1,0.2,0.2,0.3,0.3,0.5h-0.1c-0.6,0-1.2,0-1.8,0h-5.2c-0.1,0-0.2,0-0.2-0.1c-2.1-3.1-4.2-6.1-6.3-9.2
	C-452.5,284.1-452.6,283.9-452.7,283.8 M-460.3,270.1c0,0.1,0,0.1,0.1,0.1c2.9,4.2,5.8,8.4,8.8,12.5c2.1,3,4.2,6,6.3,9
	c0.1,0.1,0.1,0.1,0.2,0.1h2.6h0.6c0-0.1-0.1-0.1-0.1-0.1c-3-4.2-5.9-8.5-8.9-12.7c-2.1-3-4.1-5.9-6.2-8.9c0-0.1-0.1-0.1-0.2-0.1
	c-0.9,0-1.7,0-2.6,0h-0.6"/>
</svg>
