<?xml version="1.0" encoding="utf-8"?>
<!-- Generator: Adobe Illustrator 19.1.0, SVG Export Plug-In . SVG Version: 6.00 Build 0)  -->
<svg version="1.1" id="Layer_1" xmlns="http://www.w3.org/2000/svg" xmlns:xlink="http://www.w3.org/1999/xlink" x="0px" y="0px"
	 viewBox="0 0 28 28" style="enable-background:new 0 0 28 28;" xml:space="preserve">
<style type="text/css">
	.st0{fill:#FFFFFF;}
</style>
<path class="st0" d="M15.3,5.2c1.8,0,4.8,0,7.8,0.4c1.9,0.3,2.9,1.3,3.1,3.2c0.4,3.5,0.5,7.1,0,10.6c-0.3,1.8-1.2,2.8-3,3
	c-3.8,0.5-7.7,0.5-11.6,0.4c-2.2,0-4.3,0-6.5-0.4c-2.1-0.3-3-1.3-3.2-3.4c-0.4-3.3-0.3-6.5,0-9.8C2,6.7,3.1,5.7,5.7,5.5
	C8.4,5.3,11.2,5.2,15.3,5.2 M11.5,17.7c2.2-1.3,4.2-2.5,6.3-3.7c-2.2-1.3-4.2-2.4-6.3-3.7V17.7z"/>
</svg>
